<svg id="Layer_1" data-name="Layer 1" xmlns="http://www.w3.org/2000/svg" xmlns:xlink="http://www.w3.org/1999/xlink" viewBox="0 0 1440 810"><defs><style>.cls-1{fill:#0e0033;}.cls-2{fill:url(#linear-gradient);}.cls-3{fill:url(#linear-gradient-2);}.cls-4{fill:#005db7;}.cls-5{opacity:0.2;}.cls-6{fill:url(#linear-gradient-3);}.cls-7{fill:url(#linear-gradient-4);}.cls-8{fill:url(#linear-gradient-5);}.cls-9{fill:url(#linear-gradient-6);}.cls-10{fill:url(#linear-gradient-7);}.cls-11{fill:url(#linear-gradient-8);}.cls-12{fill:url(#linear-gradient-9);}.cls-13{fill:url(#linear-gradient-10);}.cls-14{fill:url(#linear-gradient-11);}.cls-15{fill:url(#linear-gradient-12);}.cls-16{fill:url(#linear-gradient-13);}.cls-17{fill:url(#linear-gradient-14);}.cls-18{fill:url(#linear-gradient-15);}.cls-19{fill:url(#linear-gradient-16);}.cls-20{fill:url(#linear-gradient-17);}.cls-21{fill:url(#linear-gradient-18);}.cls-22{fill:url(#linear-gradient-19);}.cls-23{fill:url(#linear-gradient-20);}.cls-24{fill:url(#linear-gradient-21);}.cls-25{fill:url(#linear-gradient-22);}.cls-26{fill:url(#linear-gradient-23);}.cls-27{fill:url(#linear-gradient-24);}.cls-28{fill:url(#linear-gradient-25);}.cls-29{fill:url(#linear-gradient-26);}.cls-30{fill:url(#linear-gradient-27);}.cls-31{fill:url(#linear-gradient-28);}.cls-32{fill:url(#linear-gradient-29);}.cls-33{fill:url(#linear-gradient-30);}.cls-34{fill:url(#linear-gradient-31);}.cls-35{fill:url(#linear-gradient-32);}.cls-36{fill:url(#linear-gradient-33);}.cls-37{fill:url(#linear-gradient-34);}.cls-38{fill:url(#linear-gradient-35);}.cls-39{fill:url(#linear-gradient-36);}.cls-40{fill:url(#linear-gradient-37);}.cls-41{fill:url(#linear-gradient-38);}.cls-42{fill:url(#linear-gradient-39);}.cls-43{fill:url(#linear-gradient-40);}.cls-44{fill:url(#linear-gradient-41);}.cls-45{fill:url(#linear-gradient-42);}.cls-46{fill:url(#linear-gradient-43);}.cls-47{fill:url(#linear-gradient-44);}.cls-48{fill:url(#linear-gradient-45);}.cls-49{fill:url(#linear-gradient-46);}.cls-50{fill:url(#linear-gradient-47);}.cls-51{fill:url(#linear-gradient-48);}.cls-52{fill:url(#linear-gradient-49);}.cls-53{fill:url(#linear-gradient-50);}.cls-54{fill:url(#linear-gradient-51);}.cls-55{fill:url(#linear-gradient-52);}.cls-56{fill:url(#linear-gradient-53);}.cls-57{fill:url(#linear-gradient-54);}.cls-58{fill:url(#linear-gradient-55);}.cls-59{fill:url(#linear-gradient-56);}.cls-60{fill:url(#linear-gradient-57);}.cls-61{fill:url(#linear-gradient-58);}.cls-62{fill:url(#linear-gradient-59);}.cls-63{fill:url(#linear-gradient-60);}.cls-64{fill:url(#linear-gradient-61);}.cls-65{fill:url(#linear-gradient-62);}.cls-66{fill:url(#linear-gradient-63);}.cls-67{fill:url(#linear-gradient-64);}</style><linearGradient id="linear-gradient" x1="15.32" y1="518.69" x2="763.76" y2="1109.99" gradientUnits="userSpaceOnUse"><stop offset="0" stop-color="#005db7"/><stop offset="1" stop-color="#0acbff"/></linearGradient><linearGradient id="linear-gradient-2" x1="1397.63" y1="659.89" x2="895.43" y2="964.45" xlink:href="#linear-gradient"/><linearGradient id="linear-gradient-3" y1="705.52" x2="1440" y2="705.52" gradientUnits="userSpaceOnUse"><stop offset="0" stop-color="#6300e6" stop-opacity="0.4"/><stop offset="1" stop-color="#f1f2f2"/></linearGradient><linearGradient id="linear-gradient-4" y1="691.75" y2="691.75" xlink:href="#linear-gradient-3"/><linearGradient id="linear-gradient-5" y1="677.99" y2="677.99" xlink:href="#linear-gradient-3"/><linearGradient id="linear-gradient-6" y1="664.22" y2="664.22" xlink:href="#linear-gradient-3"/><linearGradient id="linear-gradient-7" y1="650.46" y2="650.46" xlink:href="#linear-gradient-3"/><linearGradient id="linear-gradient-8" y1="636.69" y2="636.69" xlink:href="#linear-gradient-3"/><linearGradient id="linear-gradient-9" y1="622.92" y2="622.92" xlink:href="#linear-gradient-3"/><linearGradient id="linear-gradient-10" y1="609.16" y2="609.16" xlink:href="#linear-gradient-3"/><linearGradient id="linear-gradient-11" y1="595.39" y2="595.39" xlink:href="#linear-gradient-3"/><linearGradient id="linear-gradient-12" y1="581.63" y2="581.63" xlink:href="#linear-gradient-3"/><linearGradient id="linear-gradient-13" y1="567.86" y2="567.86" xlink:href="#linear-gradient-3"/><linearGradient id="linear-gradient-14" y1="554.09" y2="554.09" xlink:href="#linear-gradient-3"/><linearGradient id="linear-gradient-15" y1="540.33" y2="540.33" xlink:href="#linear-gradient-3"/><linearGradient id="linear-gradient-16" y1="526.56" y2="526.56" xlink:href="#linear-gradient-3"/><linearGradient id="linear-gradient-17" y1="512.8" y2="512.8" xlink:href="#linear-gradient-3"/><linearGradient id="linear-gradient-18" y1="499.03" y2="499.03" xlink:href="#linear-gradient-3"/><linearGradient id="linear-gradient-19" y1="485.27" y2="485.27" xlink:href="#linear-gradient-3"/><linearGradient id="linear-gradient-20" y1="471.5" y2="471.5" xlink:href="#linear-gradient-3"/><linearGradient id="linear-gradient-21" y1="457.73" y2="457.73" xlink:href="#linear-gradient-3"/><linearGradient id="linear-gradient-22" y1="443.97" y2="443.97" xlink:href="#linear-gradient-3"/><linearGradient id="linear-gradient-23" y1="430.2" y2="430.2" xlink:href="#linear-gradient-3"/><linearGradient id="linear-gradient-24" y1="416.44" y2="416.44" xlink:href="#linear-gradient-3"/><linearGradient id="linear-gradient-25" y1="402.67" y2="402.67" xlink:href="#linear-gradient-3"/><linearGradient id="linear-gradient-26" y1="388.9" y2="388.9" xlink:href="#linear-gradient-3"/><linearGradient id="linear-gradient-27" y1="375.14" y2="375.14" xlink:href="#linear-gradient-3"/><linearGradient id="linear-gradient-28" y1="361.37" y2="361.37" xlink:href="#linear-gradient-3"/><linearGradient id="linear-gradient-29" y1="347.61" y2="347.61" xlink:href="#linear-gradient-3"/><linearGradient id="linear-gradient-30" y1="333.84" y2="333.84" xlink:href="#linear-gradient-3"/><linearGradient id="linear-gradient-31" y1="320.07" y2="320.07" xlink:href="#linear-gradient-3"/><linearGradient id="linear-gradient-32" y1="306.31" y2="306.31" xlink:href="#linear-gradient-3"/><linearGradient id="linear-gradient-33" y1="292.54" y2="292.54" xlink:href="#linear-gradient-3"/><linearGradient id="linear-gradient-34" y1="278.78" y2="278.78" xlink:href="#linear-gradient-3"/><linearGradient id="linear-gradient-35" y1="265.01" y2="265.01" xlink:href="#linear-gradient-3"/><linearGradient id="linear-gradient-36" y1="251.24" y2="251.24" xlink:href="#linear-gradient-3"/><linearGradient id="linear-gradient-37" y1="237.48" y2="237.48" xlink:href="#linear-gradient-3"/><linearGradient id="linear-gradient-38" y1="223.71" y2="223.71" xlink:href="#linear-gradient-3"/><linearGradient id="linear-gradient-39" y1="209.95" y2="209.95" xlink:href="#linear-gradient-3"/><linearGradient id="linear-gradient-40" y1="196.18" y2="196.18" xlink:href="#linear-gradient-3"/><linearGradient id="linear-gradient-41" y1="182.41" y2="182.41" xlink:href="#linear-gradient-3"/><linearGradient id="linear-gradient-42" y1="168.65" y2="168.65" xlink:href="#linear-gradient-3"/><linearGradient id="linear-gradient-43" y1="154.88" y2="154.88" xlink:href="#linear-gradient-3"/><linearGradient id="linear-gradient-44" y1="141.12" y2="141.12" xlink:href="#linear-gradient-3"/><linearGradient id="linear-gradient-45" y1="127.35" y2="127.35" xlink:href="#linear-gradient-3"/><linearGradient id="linear-gradient-46" y1="113.59" y2="113.59" xlink:href="#linear-gradient-3"/><linearGradient id="linear-gradient-47" y1="99.82" y2="99.82" xlink:href="#linear-gradient-3"/><linearGradient id="linear-gradient-48" y1="4.17" x2="35.34" y2="4.17" xlink:href="#linear-gradient-3"/><linearGradient id="linear-gradient-49" x1="250.9" y1="91.94" y2="91.94" xlink:href="#linear-gradient-3"/><linearGradient id="linear-gradient-50" x1="310.44" y1="85.05" y2="85.05" xlink:href="#linear-gradient-3"/><linearGradient id="linear-gradient-51" x1="356.26" y1="78.17" x2="1233.48" y2="78.17" xlink:href="#linear-gradient-3"/><linearGradient id="linear-gradient-52" x1="1389.89" y1="13.75" y2="13.75" xlink:href="#linear-gradient-3"/><linearGradient id="linear-gradient-53" x1="395.67" y1="71.29" x2="1191.8" y2="71.29" xlink:href="#linear-gradient-3"/><linearGradient id="linear-gradient-54" x1="1419.02" y1="6.87" y2="6.87" xlink:href="#linear-gradient-3"/><linearGradient id="linear-gradient-55" x1="431.14" y1="64.41" x2="1157.39" y2="64.41" xlink:href="#linear-gradient-3"/><linearGradient id="linear-gradient-56" x1="464.06" y1="57.52" x2="1125.98" y2="57.52" xlink:href="#linear-gradient-3"/><linearGradient id="linear-gradient-57" x1="495.13" y1="50.64" x2="1095.68" y2="50.64" xlink:href="#linear-gradient-3"/><linearGradient id="linear-gradient-58" x1="524.84" y1="43.76" x2="1065.88" y2="43.76" xlink:href="#linear-gradient-3"/><linearGradient id="linear-gradient-59" x1="553.89" y1="36.88" x2="1038.32" y2="36.88" xlink:href="#linear-gradient-3"/><linearGradient id="linear-gradient-60" x1="583.95" y1="29.99" x2="1011.65" y2="29.99" xlink:href="#linear-gradient-3"/><linearGradient id="linear-gradient-61" x1="616" y1="23.11" x2="984.49" y2="23.11" xlink:href="#linear-gradient-3"/><linearGradient id="linear-gradient-62" x1="651.52" y1="16.23" x2="955.22" y2="16.23" xlink:href="#linear-gradient-3"/><linearGradient id="linear-gradient-63" x1="693.59" y1="9.35" x2="920.89" y2="9.35" xlink:href="#linear-gradient-3"/><linearGradient id="linear-gradient-64" x1="754.21" y1="2.46" x2="869.93" y2="2.46" xlink:href="#linear-gradient-3"/></defs><title>section 1 updated (1440x810 Px)</title><rect class="cls-1" width="1440" height="810"/><path class="cls-2" d="M545.26,733.47c69.32,33.09,145.17,66.32,222.83,76.53H0V648c24.94-11,64.49-15.9,82.2-18.81C240.77,603,404.78,666.38,545.26,733.47Z"/><path class="cls-3" d="M1440,697.65V810H860.21q14.09-2,28.19-5.51c67.33-16.74,127.08-56.36,189.85-84.66,99.57-44.91,218.34-106.37,325.16-47.62A222.37,222.37,0,0,1,1440,697.65Z"/><path class="cls-4" d="M480.86,810H0V681.25c93.27-2.6,187,13.57,275.83,41.22A1059,1059,0,0,1,437.2,787.8C451.56,795,466.29,802.32,480.86,810Z"/><path class="cls-4" d="M1392.25,724.82A268.35,268.35,0,0,1,1440,748v62H965.44c15.52-4.09,30.95-8.61,46.26-13.42,25.64-8.06,51.08-16.89,76.06-26.85,25.93-10.35,53.76-18.93,78.72-31.4C1240.75,708.71,1315.18,696.83,1392.25,724.82Z"/><g class="cls-5"><path class="cls-6" d="M1440,673.27v1.23a215,215,0,0,0-24.26-15.58c-102.21-56.2-214.1-5.18-312.82,39.84q-9.93,4.53-19.66,8.93c-20.82,9.39-41.69,20.19-61.87,30.64-42.25,21.87-85.94,44.48-132.59,56.06a308.91,308.91,0,0,1-74.89,9c-33.36,0-68.56-4.92-106.22-14.79-59.34-15.55-117-41.34-170.56-66.89-142.29-68-309.86-133.78-473.81-106.75-2.4.39-5.07.81-8,1.26-15,2.33-35.73,5.56-55.36,11.63v-1c19.62-6,40.26-9.25,55.21-11.58l7.95-1.26c74.23-12.24,154.11-6.48,244.21,17.61,68.14,18.22,139.13,45.74,230.2,89.22,106.52,50.87,230.28,102.64,351,72.67,46.54-11.55,90.17-34.14,132.37-56,20.19-10.45,41.07-21.26,61.92-30.66q9.72-4.38,19.66-8.93c50-22.78,101.6-46.33,155-57.77,61-13.09,113-7.21,158.76,18A214.51,214.51,0,0,1,1440,673.27Z"/><path class="cls-7" d="M1440,659.5v1.24a215.07,215.07,0,0,0-24.26-15.59C1313.52,589,1201.64,640,1102.93,685q-9.95,4.53-19.67,8.94c-20.82,9.39-41.69,20.19-61.87,30.63C979.14,746.43,935.45,769,888.8,780.62a308.92,308.92,0,0,1-74.89,9c-33.36,0-68.56-4.92-106.22-14.79-59.34-15.55-117-41.34-170.56-66.9C394.84,639.94,227.27,574.11,63.32,601.14c-2.4.4-5.07.81-8,1.26C40.37,604.74,19.63,608,0,614v-1c19.62-6,40.26-9.25,55.21-11.58,2.89-.45,5.55-.86,7.95-1.26,74.23-12.24,154.12-6.48,244.21,17.61C375.51,636,446.5,663.5,537.57,707c106.52,50.87,230.28,102.63,351,72.66,46.54-11.55,90.17-34.13,132.37-56,20.19-10.45,41.07-21.26,61.92-30.67q9.72-4.38,19.66-8.93c50-22.78,101.6-46.33,155-57.77,61-13.09,113-7.21,158.75,18A214.4,214.4,0,0,1,1440,659.5Z"/><path class="cls-8" d="M1440,645.73V647a215,215,0,0,0-24.26-15.58c-102.21-56.2-214.1-5.18-312.82,39.84q-9.93,4.53-19.66,8.93c-20.82,9.39-41.69,20.19-61.87,30.64-42.25,21.87-85.94,44.48-132.59,56.06a309.41,309.41,0,0,1-74.89,8.95c-33.36,0-68.56-4.92-106.22-14.79-59.34-15.55-117-41.34-170.56-66.9-142.29-68-309.86-133.77-473.81-106.75-2.4.4-5.07.82-8,1.27C40.37,591,19.63,594.2,0,600.27v-1c19.61-6,40.26-9.25,55.2-11.58,2.89-.45,5.56-.87,8-1.26,74.23-12.24,154.12-6.48,244.21,17.61,68.14,18.22,139.13,45.73,230.2,89.22,106.52,50.87,230.28,102.63,351,72.67,46.54-11.56,90.17-34.14,132.37-56,20.19-10.45,41.07-21.26,61.92-30.66q9.72-4.38,19.66-8.93c50-22.78,101.6-46.34,155-57.78,61-13.08,113-7.21,158.76,18A214.4,214.4,0,0,1,1440,645.73Z"/><path class="cls-9" d="M1440,632v1.23a215,215,0,0,0-24.26-15.58c-102.21-56.2-214.1-5.18-312.82,39.84q-9.93,4.53-19.66,8.93c-20.82,9.4-41.69,20.2-61.87,30.64-42.25,21.87-85.94,44.48-132.59,56.06a308.89,308.89,0,0,1-74.88,9c-33.37,0-68.57-4.93-106.23-14.8-59.34-15.54-117-41.34-170.56-66.89-142.29-68-309.86-133.78-473.81-106.75-2.4.39-5.07.81-8,1.26-15,2.33-35.73,5.56-55.36,11.63v-1c19.62-6,40.26-9.25,55.21-11.58,2.89-.45,5.55-.86,7.95-1.26,74.23-12.24,154.11-6.48,244.21,17.61,68.14,18.22,139.13,45.74,230.2,89.23,106.52,50.87,230.27,102.63,351,72.66,46.54-11.55,90.17-34.13,132.37-56,20.19-10.46,41.07-21.26,61.92-30.67q9.72-4.38,19.66-8.93c50-22.78,101.6-46.33,155-57.77,61-13.09,113-7.21,158.76,18A214.51,214.51,0,0,1,1440,632Z"/><path class="cls-10" d="M1440,618.2v1.24a215.07,215.07,0,0,0-24.26-15.59c-102.22-56.2-214.1-5.17-312.81,39.84q-9.95,4.54-19.67,8.94c-20.82,9.39-41.69,20.19-61.87,30.64-42.25,21.86-85.94,44.48-132.59,56.06a309.41,309.41,0,0,1-74.89,8.95c-33.36,0-68.56-4.92-106.22-14.79-59.34-15.55-117-41.34-170.56-66.9-142.29-68-309.86-133.78-473.81-106.75-2.4.4-5.07.81-8,1.26-15,2.34-35.73,5.56-55.36,11.64v-1c19.62-6,40.26-9.24,55.21-11.57l7.95-1.26c74.23-12.24,154.12-6.48,244.21,17.61,68.14,18.21,139.13,45.73,230.2,89.22,106.52,50.87,230.28,102.63,351,72.67,46.54-11.56,90.17-34.14,132.37-56,20.19-10.45,41.07-21.26,61.92-30.66q9.72-4.38,19.66-8.94c50-22.78,101.6-46.33,155-57.77,61-13.09,113-7.21,158.75,18A214.4,214.4,0,0,1,1440,618.2Z"/><path class="cls-11" d="M1440,604.43v1.24a215,215,0,0,0-24.26-15.58c-102.22-56.2-214.1-5.18-312.82,39.84q-9.95,4.53-19.66,8.93c-20.82,9.4-41.69,20.2-61.87,30.64C979.14,691.37,935.45,714,888.8,725.56a308.91,308.91,0,0,1-74.89,9c-33.36,0-68.56-4.92-106.22-14.79-59.34-15.55-117-41.34-170.56-66.89-142.29-68-309.86-133.78-473.81-106.75-2.4.39-5.07.81-8,1.26C40.37,549.67,19.63,552.9,0,559v-1.05c19.61-6,40.26-9.25,55.2-11.58,2.89-.45,5.56-.87,8-1.26,74.23-12.24,154.12-6.48,244.21,17.61,68.14,18.22,139.13,45.74,230.2,89.22,106.52,50.87,230.28,102.64,351,72.67,46.53-11.55,90.17-34.14,132.37-56,20.19-10.46,41.07-21.26,61.92-30.67q9.72-4.38,19.66-8.93c50-22.78,101.6-46.33,155-57.77,61-13.09,113-7.21,158.76,18A214.4,214.4,0,0,1,1440,604.43Z"/><path class="cls-12" d="M1440,590.67v1.23a215,215,0,0,0-24.26-15.58c-102.21-56.2-214.1-5.17-312.82,39.84q-9.93,4.53-19.66,8.94c-20.82,9.39-41.69,20.19-61.87,30.64-42.25,21.86-85.94,44.47-132.59,56.06a309.39,309.39,0,0,1-74.88,9c-33.37,0-68.57-4.92-106.23-14.79-59.34-15.55-117-41.34-170.56-66.9C394.84,571.11,227.27,505.28,63.32,532.31c-2.4.4-5.07.81-8,1.26-15,2.34-35.73,5.56-55.36,11.64v-1.05c19.62-6,40.26-9.25,55.21-11.58,2.89-.45,5.55-.86,7.95-1.26,74.23-12.24,154.11-6.48,244.21,17.62,68.14,18.21,139.13,45.73,230.2,89.22,106.52,50.87,230.27,102.63,351,72.67,46.54-11.56,90.17-34.14,132.37-56,20.19-10.45,41.07-21.26,61.92-30.67q9.72-4.38,19.66-8.93c50-22.78,101.6-46.33,155-57.77,61-13.09,113-7.21,158.76,18A214.4,214.4,0,0,1,1440,590.67Z"/><path class="cls-13" d="M1440,576.9v1.24a215,215,0,0,0-24.26-15.58c-102.21-56.2-214.1-5.18-312.81,39.84q-9.95,4.53-19.67,8.93c-20.82,9.39-41.69,20.19-61.87,30.64C979.14,663.84,935.45,686.45,888.8,698a309.41,309.41,0,0,1-74.89,9c-33.36,0-68.56-4.92-106.22-14.79-59.34-15.55-117-41.34-170.56-66.9C394.84,557.34,227.26,491.52,63.32,518.54c-2.4.4-5.07.82-8,1.27-15,2.33-35.73,5.56-55.36,11.63v-1c19.62-6,40.26-9.25,55.21-11.58l7.95-1.26c74.23-12.24,154.11-6.48,244.21,17.61,68.14,18.22,139.13,45.73,230.2,89.22,106.52,50.87,230.28,102.64,351,72.67,46.54-11.55,90.17-34.14,132.37-56,20.19-10.45,41.07-21.26,61.92-30.66q9.72-4.38,19.66-8.93c50-22.78,101.6-46.34,155-57.78,61-13.08,113-7.2,158.75,18A214.4,214.4,0,0,1,1440,576.9Z"/><path class="cls-14" d="M1440,563.14v1.24a215.07,215.07,0,0,0-24.26-15.59c-102.22-56.2-214.1-5.17-312.81,39.84q-9.95,4.53-19.67,8.94c-20.82,9.39-41.69,20.19-61.87,30.63-42.25,21.87-85.94,44.48-132.59,56.06a308.92,308.92,0,0,1-74.89,9c-33.36,0-68.56-4.93-106.22-14.79-59.34-15.55-117-41.35-170.56-66.9-142.29-68-309.86-133.78-473.81-106.75-2.4.39-5.07.81-8,1.26-15,2.33-35.73,5.56-55.36,11.64v-1c19.62-6,40.26-9.25,55.21-11.58,2.89-.45,5.55-.86,7.95-1.26,74.23-12.24,154.12-6.48,244.21,17.61,68.14,18.22,139.13,45.74,230.2,89.23,106.52,50.87,230.28,102.63,351,72.66,46.54-11.55,90.17-34.13,132.37-56,20.19-10.46,41.07-21.26,61.92-30.67q9.72-4.38,19.66-8.93c50-22.78,101.6-46.33,155-57.77,61-13.09,113-7.21,158.75,18A213.06,213.06,0,0,1,1440,563.14Z"/><path class="cls-15" d="M1440,549.37v1.24A215,215,0,0,0,1415.74,535c-102.21-56.2-214.1-5.18-312.82,39.83q-9.93,4.54-19.66,8.94c-20.82,9.39-41.69,20.19-61.87,30.64-42.25,21.86-85.94,44.48-132.59,56.06a309.41,309.41,0,0,1-74.89,9c-33.36,0-68.56-4.92-106.22-14.79-59.35-15.55-117-41.34-170.56-66.9C394.84,529.81,227.27,464,63.32,491c-2.4.4-5.07.81-8,1.26-15,2.34-35.73,5.56-55.36,11.64v-1.05c19.62-6,40.26-9.24,55.21-11.57L63.16,490c74.23-12.24,154.11-6.48,244.21,17.61,68.14,18.21,139.13,45.73,230.2,89.22,106.52,50.87,230.27,102.64,351,72.67,46.54-11.56,90.17-34.14,132.37-56,20.19-10.45,41.07-21.26,61.92-30.66q9.72-4.38,19.66-8.93c50-22.78,101.6-46.34,155-57.78,61-13.08,113-7.21,158.76,18A214.4,214.4,0,0,1,1440,549.37Z"/><path class="cls-16" d="M1440,535.61v1.23a215,215,0,0,0-24.26-15.58c-102.21-56.2-214.1-5.18-312.82,39.84q-9.93,4.53-19.66,8.93c-20.82,9.39-41.69,20.2-61.87,30.64-42.25,21.87-85.94,44.48-132.59,56.06a308.91,308.91,0,0,1-74.89,8.95c-33.36,0-68.56-4.92-106.22-14.79-59.34-15.55-117-41.34-170.56-66.89C394.84,516,227.27,450.22,63.32,477.25c-2.4.39-5.07.81-8,1.26-15,2.33-35.73,5.56-55.36,11.63v-1c19.62-6,40.26-9.25,55.21-11.58,2.89-.45,5.55-.86,7.95-1.26,74.23-12.24,154.11-6.48,244.21,17.61,68.14,18.22,139.13,45.74,230.2,89.22,106.52,50.88,230.28,102.64,351,72.67,46.54-11.55,90.17-34.14,132.37-56,20.19-10.45,41.07-21.26,61.92-30.66q9.72-4.38,19.66-8.93c50-22.78,101.6-46.33,155-57.77,61-13.09,113-7.21,158.76,18A214.51,214.51,0,0,1,1440,535.61Z"/><path class="cls-17" d="M1440,521.84v1.24a215.07,215.07,0,0,0-24.26-15.59c-102.22-56.2-214.1-5.17-312.81,39.84q-9.95,4.54-19.67,8.94c-20.82,9.39-41.69,20.19-61.87,30.64C979.14,608.77,935.45,631.38,888.8,643a309.41,309.41,0,0,1-74.89,8.95c-33.36,0-68.56-4.92-106.22-14.79-59.34-15.55-117-41.34-170.56-66.9-142.29-68-309.86-133.78-473.81-106.75-2.4.4-5.07.81-8,1.26-15,2.34-35.73,5.56-55.36,11.64v-1.05c19.62-6,40.26-9.25,55.21-11.58,2.89-.45,5.55-.86,7.95-1.25,74.23-12.25,154.12-6.48,244.21,17.61,68.14,18.21,139.13,45.73,230.2,89.22C644.09,620.2,767.85,672,888.56,642c46.54-11.56,90.17-34.14,132.37-56,20.19-10.45,41.07-21.26,61.92-30.66q9.72-4.4,19.66-8.94c50-22.78,101.6-46.33,155-57.77,61-13.09,113-7.21,158.75,18A214.4,214.4,0,0,1,1440,521.84Z"/><path class="cls-18" d="M1440,508.07v1.24a215,215,0,0,0-24.26-15.58c-102.21-56.2-214.1-5.18-312.82,39.84q-9.93,4.53-19.66,8.93c-20.82,9.39-41.69,20.19-61.87,30.64C979.14,595,935.45,617.62,888.8,629.2a308.91,308.91,0,0,1-74.89,8.95c-33.36,0-68.56-4.92-106.22-14.79-59.34-15.55-117-41.34-170.56-66.89-142.29-68-309.86-133.78-473.81-106.76-2.4.4-5.07.82-8,1.27-15,2.33-35.73,5.56-55.36,11.63v-1c19.61-6,40.26-9.25,55.2-11.58,2.89-.45,5.56-.87,8-1.26,74.23-12.24,154.12-6.48,244.21,17.61,68.14,18.22,139.13,45.74,230.2,89.22,106.52,50.87,230.28,102.63,351,72.67,46.54-11.55,90.17-34.14,132.37-56,20.19-10.45,41.07-21.26,61.92-30.66q9.72-4.38,19.66-8.93c50-22.78,101.6-46.34,155-57.77,61-13.09,113-7.21,158.76,18A214.4,214.4,0,0,1,1440,508.07Z"/><path class="cls-19" d="M1440,494.31v1.23A215,215,0,0,0,1415.74,480c-102.21-56.2-214.1-5.17-312.82,39.84q-9.93,4.53-19.66,8.94c-20.82,9.39-41.69,20.19-61.87,30.63-42.25,21.87-85.94,44.48-132.59,56.06a308.89,308.89,0,0,1-74.88,9c-33.37,0-68.57-4.93-106.23-14.79-59.34-15.55-117-41.35-170.56-66.9C394.84,474.75,227.27,408.92,63.32,436c-2.4.39-5.07.81-8,1.26-15,2.33-35.73,5.56-55.36,11.63v-1c19.62-6,40.26-9.25,55.21-11.58,2.89-.45,5.55-.86,7.95-1.26,74.23-12.24,154.11-6.48,244.21,17.61,68.14,18.22,139.13,45.74,230.2,89.23,106.52,50.87,230.27,102.63,351,72.66,46.54-11.55,90.17-34.13,132.37-56,20.19-10.46,41.07-21.26,61.92-30.67q9.72-4.38,19.66-8.93c50-22.78,101.6-46.33,155-57.77,61-13.09,113-7.21,158.76,18A214.51,214.51,0,0,1,1440,494.31Z"/><path class="cls-20" d="M1440,480.54v1.24a215,215,0,0,0-24.26-15.58C1313.53,410,1201.64,461,1102.93,506q-9.95,4.53-19.67,8.93c-20.82,9.39-41.69,20.19-61.87,30.64-42.25,21.86-85.94,44.48-132.59,56.06a309.41,309.41,0,0,1-74.89,9c-33.36,0-68.56-4.92-106.22-14.79-59.34-15.55-117-41.34-170.56-66.9C394.84,461,227.27,395.15,63.32,422.18c-2.4.4-5.07.81-8,1.26C40.37,425.78,19.63,429,0,435.08v-1c19.62-6,40.26-9.25,55.21-11.58l7.95-1.26c74.23-12.24,154.12-6.48,244.21,17.61C375.51,457,446.5,484.54,537.57,528c106.52,50.87,230.28,102.63,351,72.67,46.54-11.56,90.17-34.14,132.37-56,20.19-10.45,41.07-21.26,61.92-30.66q9.72-4.38,19.66-8.94c50-22.77,101.6-46.33,155-57.77,61-13.08,113-7.21,158.76,18A214.4,214.4,0,0,1,1440,480.54Z"/><path class="cls-21" d="M1440,466.78V468a215,215,0,0,0-24.26-15.58c-102.22-56.2-214.1-5.18-312.82,39.84q-9.95,4.53-19.66,8.93c-20.82,9.4-41.69,20.2-61.87,30.64-42.25,21.87-85.94,44.48-132.59,56.06a309.41,309.41,0,0,1-74.89,9c-33.36,0-68.56-4.93-106.22-14.8-59.34-15.55-117-41.34-170.56-66.89-142.29-68-309.86-133.78-473.81-106.75-2.4.39-5.07.81-8,1.26C40.37,412,19.63,415.24,0,421.32v-1.05c19.62-6,40.26-9.25,55.21-11.58,2.89-.45,5.55-.86,7.95-1.26C137.39,395.19,217.28,401,307.37,425c68.14,18.22,139.13,45.74,230.2,89.23,106.52,50.87,230.28,102.63,351,72.66,46.53-11.55,90.17-34.14,132.37-56,20.19-10.46,41.07-21.26,61.92-30.67q9.72-4.38,19.66-8.93c50-22.78,101.6-46.33,155-57.77,61-13.09,113-7.21,158.76,18A213.06,213.06,0,0,1,1440,466.78Z"/><path class="cls-22" d="M1440,453v1.24a213.68,213.68,0,0,0-24.26-15.59c-102.21-56.2-214.1-5.17-312.81,39.84q-9.95,4.54-19.67,8.94c-20.82,9.39-41.69,20.19-61.87,30.64-42.25,21.86-85.94,44.47-132.59,56.06a309.39,309.39,0,0,1-74.88,9c-33.37,0-68.57-4.92-106.23-14.79-59.34-15.55-117-41.34-170.56-66.9C394.84,433.45,227.27,367.62,63.32,394.65c-2.4.4-5.07.81-8,1.26-15,2.34-35.72,5.56-55.36,11.64V406.5c19.62-6,40.26-9.25,55.21-11.58,2.88-.45,5.55-.86,7.95-1.25,74.23-12.24,154.11-6.48,244.21,17.61C375.51,429.49,446.5,457,537.57,500.5c106.52,50.87,230.27,102.63,351,72.67,46.54-11.56,90.17-34.14,132.37-56,20.19-10.45,41.07-21.26,61.92-30.66q9.72-4.39,19.66-8.94c50-22.78,101.6-46.33,155-57.77,61-13.08,113-7.21,158.76,18A214.4,214.4,0,0,1,1440,453Z"/><path class="cls-23" d="M1440,439.25v1.23a215,215,0,0,0-24.26-15.58c-102.21-56.2-214.1-5.18-312.81,39.84q-9.95,4.53-19.67,8.93c-20.82,9.39-41.69,20.19-61.87,30.64-42.25,21.87-85.94,44.48-132.59,56.06a309.41,309.41,0,0,1-74.89,9c-33.36,0-68.56-4.92-106.22-14.79-59.34-15.55-117-41.34-170.56-66.89-142.29-68-309.86-133.78-473.81-106.75-2.4.39-5.07.81-8,1.26-15,2.33-35.73,5.56-55.36,11.63v-1c19.62-6,40.26-9.25,55.21-11.58l7.95-1.26c74.23-12.24,154.12-6.48,244.21,17.61,68.14,18.22,139.13,45.74,230.2,89.22,106.52,50.87,230.28,102.64,351,72.67,46.54-11.55,90.17-34.14,132.37-56,20.19-10.45,41.07-21.26,61.92-30.66q9.72-4.38,19.66-8.93c50-22.78,101.6-46.34,155-57.77,61-13.09,113-7.21,158.76,18A214.51,214.51,0,0,1,1440,439.25Z"/><path class="cls-24" d="M1440,425.48v1.24a215.07,215.07,0,0,0-24.26-15.59c-102.22-56.2-214.1-5.17-312.81,39.84q-9.95,4.53-19.67,8.94c-20.82,9.39-41.69,20.19-61.87,30.63C979.14,512.41,935.45,535,888.8,546.6a308.92,308.92,0,0,1-74.89,9c-33.36,0-68.56-4.93-106.22-14.79-59.34-15.55-117-41.35-170.56-66.9C394.84,405.92,227.27,340.09,63.32,367.12c-2.4.4-5.07.81-8,1.26C40.37,370.72,19.64,373.94,0,380v-1c19.61-6,40.26-9.25,55.2-11.58,2.89-.45,5.56-.86,8-1.26,74.23-12.24,154.12-6.47,244.21,17.61C375.51,402,446.5,429.48,537.57,473c106.52,50.87,230.28,102.63,351,72.66,46.54-11.55,90.17-34.13,132.37-56,20.19-10.45,41.07-21.26,61.92-30.67q9.72-4.38,19.66-8.93c50-22.78,101.6-46.33,155-57.77,61-13.09,113-7.21,158.75,18A213.06,213.06,0,0,1,1440,425.48Z"/><path class="cls-25" d="M1440,411.71V413a215,215,0,0,0-24.26-15.58c-102.21-56.2-214.1-5.18-312.81,39.83q-9.95,4.55-19.67,8.94c-20.82,9.39-41.69,20.19-61.87,30.64-42.25,21.87-85.94,44.48-132.59,56.06a309.41,309.41,0,0,1-74.89,8.95c-33.36,0-68.56-4.92-106.22-14.79-59.35-15.55-117-41.34-170.56-66.9-142.29-68-309.87-133.77-473.81-106.75-2.4.4-5.07.81-8,1.26C40.37,357,19.63,360.17,0,366.25v-1c19.62-6,40.26-9.25,55.21-11.58l7.95-1.26c74.23-12.24,154.12-6.48,244.21,17.61,68.14,18.22,139.13,45.73,230.2,89.22,106.52,50.87,230.27,102.64,351,72.67,46.54-11.56,90.17-34.14,132.37-56,20.19-10.45,41.07-21.26,61.92-30.66q9.72-4.38,19.66-8.94c50-22.77,101.6-46.33,155-57.77,61-13.08,113-7.21,158.75,18A214.4,214.4,0,0,1,1440,411.71Z"/><path class="cls-26" d="M1440,398v1.23a215,215,0,0,0-24.26-15.58c-102.21-56.2-214.1-5.18-312.81,39.84q-9.95,4.53-19.67,8.93c-20.82,9.4-41.69,20.2-61.87,30.64-42.25,21.87-85.94,44.48-132.59,56.06a309.41,309.41,0,0,1-74.89,9c-33.36,0-68.56-4.93-106.22-14.8-59.34-15.55-117-41.34-170.56-66.89-142.29-68-309.86-133.78-473.81-106.75-2.4.39-5.07.81-8,1.26-15,2.33-35.73,5.56-55.36,11.63v-1c19.62-6,40.26-9.25,55.21-11.58,2.89-.45,5.55-.86,7.95-1.26,74.23-12.24,154.12-6.48,244.21,17.61,68.14,18.22,139.13,45.74,230.2,89.23,106.52,50.87,230.28,102.63,351,72.66,46.54-11.55,90.17-34.14,132.37-56,20.19-10.45,41.07-21.25,61.92-30.66q9.72-4.38,19.66-8.93c50-22.78,101.6-46.33,155-57.77,61-13.09,113-7.21,158.76,18A214.51,214.51,0,0,1,1440,398Z"/><path class="cls-27" d="M1440,384.18v1.24a215.07,215.07,0,0,0-24.26-15.59c-102.21-56.2-214.1-5.17-312.82,39.84q-9.93,4.54-19.66,8.94c-20.82,9.39-41.69,20.19-61.87,30.64-42.25,21.86-85.94,44.47-132.59,56.06a309.41,309.41,0,0,1-74.89,8.95c-33.36,0-68.56-4.92-106.22-14.79-59.34-15.55-117-41.34-170.56-66.9C394.84,364.62,227.27,298.79,63.32,325.82c-2.4.4-5.07.81-8,1.26-15,2.34-35.72,5.56-55.36,11.64v-1.05c19.62-6,40.26-9.25,55.21-11.58,2.88-.44,5.55-.86,7.95-1.25,74.23-12.24,154.11-6.48,244.21,17.61,68.14,18.21,139.13,45.73,230.2,89.22,106.52,50.87,230.28,102.63,351,72.67,46.54-11.56,90.17-34.14,132.37-56,20.19-10.45,41.07-21.26,61.92-30.66q9.72-4.38,19.66-8.94c50-22.77,101.6-46.33,155-57.77,61-13.08,113-7.21,158.76,18A214.4,214.4,0,0,1,1440,384.18Z"/><path class="cls-28" d="M1440,370.41v1.24a215,215,0,0,0-24.26-15.58c-102.21-56.2-214.1-5.18-312.81,39.84q-9.95,4.53-19.67,8.93c-20.82,9.39-41.69,20.2-61.87,30.64C979.14,457.35,935.45,480,888.8,491.54a308.91,308.91,0,0,1-74.89,8.95c-33.36,0-68.56-4.92-106.22-14.79-59.34-15.55-117-41.34-170.56-66.89C394.84,350.85,227.27,285,63.32,312.06c-2.4.39-5.07.81-8,1.26C40.37,315.65,19.63,318.88,0,325v-1c19.62-6,40.26-9.25,55.21-11.58l7.95-1.26c74.23-12.24,154.12-6.48,244.21,17.61,68.14,18.22,139.13,45.74,230.2,89.22,106.52,50.87,230.28,102.64,351,72.67,46.54-11.55,90.17-34.14,132.37-56,20.19-10.45,41.07-21.26,61.92-30.66q9.72-4.38,19.66-8.93c50-22.78,101.6-46.33,155-57.77,61-13.09,113-7.21,158.76,18A214.4,214.4,0,0,1,1440,370.41Z"/><path class="cls-29" d="M1440,356.65v1.23a215,215,0,0,0-24.26-15.58c-102.21-56.2-214.1-5.17-312.81,39.84q-9.95,4.53-19.67,8.94c-20.82,9.39-41.69,20.19-61.87,30.63-42.25,21.87-85.94,44.48-132.59,56.07a309.39,309.39,0,0,1-74.88,9c-33.37,0-68.57-4.92-106.23-14.79-59.34-15.55-117-41.34-170.56-66.9-142.29-68-309.86-133.78-473.81-106.75-2.4.4-5.07.81-8,1.26-15,2.34-35.72,5.56-55.36,11.64v-1.05c19.61-6,40.26-9.25,55.2-11.58,2.89-.45,5.56-.86,8-1.26,74.23-12.24,154.12-6.47,244.21,17.61,68.14,18.22,139.13,45.74,230.2,89.23,106.52,50.87,230.28,102.63,351,72.66,46.54-11.55,90.17-34.13,132.37-56,20.19-10.45,41.07-21.26,61.92-30.67q9.72-4.38,19.66-8.93c50-22.78,101.6-46.33,155-57.77,61-13.09,113-7.21,158.76,18A214.4,214.4,0,0,1,1440,356.65Z"/><path class="cls-30" d="M1440,342.88v1.24a215,215,0,0,0-24.26-15.58c-102.21-56.2-214.1-5.18-312.81,39.84q-9.95,4.53-19.67,8.93c-20.82,9.39-41.69,20.19-61.87,30.64C979.14,429.82,935.45,452.43,888.8,464A309.41,309.41,0,0,1,813.91,473c-33.36,0-68.56-4.92-106.22-14.79-59.34-15.55-117-41.34-170.56-66.9C394.84,323.32,227.27,257.5,63.32,284.52c-2.4.4-5.07.81-8,1.27-15,2.33-35.73,5.56-55.36,11.63v-1c19.62-6,40.26-9.25,55.21-11.58l7.95-1.26c74.23-12.24,154.12-6.48,244.21,17.61,68.14,18.22,139.13,45.73,230.2,89.22C644.09,441.24,767.85,493,888.56,463c46.54-11.55,90.17-34.14,132.37-56,20.19-10.45,41.07-21.26,61.92-30.66q9.72-4.38,19.66-8.93c50-22.78,101.6-46.34,155-57.78,61-13.08,113-7.21,158.76,18A214.4,214.4,0,0,1,1440,342.88Z"/><path class="cls-31" d="M1440,329.12v1.23a215,215,0,0,0-24.26-15.58c-102.21-56.2-214.1-5.18-312.81,39.84q-9.95,4.53-19.67,8.93c-20.82,9.4-41.69,20.2-61.87,30.64-42.25,21.87-85.94,44.48-132.59,56.06a308.92,308.92,0,0,1-74.89,9c-33.36,0-68.56-4.93-106.22-14.79-59.35-15.56-117-41.35-170.56-66.9-142.29-68-309.86-133.78-473.81-106.75-2.4.39-5.07.81-8,1.26-15,2.33-35.73,5.56-55.36,11.64v-1.05c19.62-6,40.26-9.25,55.21-11.58,2.89-.45,5.55-.86,7.95-1.26,74.23-12.24,154.12-6.48,244.21,17.61,68.14,18.22,139.13,45.74,230.2,89.23,106.52,50.87,230.28,102.63,351,72.66,46.54-11.55,90.17-34.14,132.37-56,20.19-10.45,41.07-21.25,61.92-30.66q9.72-4.38,19.66-8.93c50-22.78,101.6-46.33,155-57.77,61-13.09,113-7.21,158.76,18A213.06,213.06,0,0,1,1440,329.12Z"/><path class="cls-32" d="M1440,315.35v1.24A213.68,213.68,0,0,0,1415.74,301c-102.21-56.19-214.1-5.17-312.82,39.84q-9.93,4.55-19.66,8.94c-20.82,9.39-41.69,20.19-61.87,30.64-42.25,21.86-85.94,44.48-132.59,56.06a309.39,309.39,0,0,1-74.88,8.95c-33.37,0-68.57-4.92-106.23-14.79-59.34-15.55-117-41.34-170.56-66.9C394.84,295.79,227.27,230,63.32,257c-2.4.4-5.07.81-8,1.26-15,2.34-35.72,5.56-55.36,11.64v-1.05c19.62-6,40.26-9.24,55.21-11.57L63.16,256c74.23-12.24,154.11-6.48,244.21,17.61,68.14,18.21,139.13,45.73,230.2,89.22,106.52,50.87,230.28,102.63,351,72.67,46.54-11.56,90.17-34.14,132.37-56,20.19-10.45,41.07-21.26,61.92-30.66q9.72-4.38,19.66-8.94c50-22.77,101.6-46.33,155-57.77,61-13.08,113-7.21,158.76,18A214.4,214.4,0,0,1,1440,315.35Z"/><path class="cls-33" d="M1440,301.59v1.23a215,215,0,0,0-24.26-15.58c-102.21-56.2-214.1-5.18-312.81,39.84q-9.95,4.53-19.67,8.93c-20.82,9.39-41.69,20.2-61.87,30.64-42.25,21.87-85.94,44.48-132.59,56.06a308.91,308.91,0,0,1-74.89,9c-33.36,0-68.56-4.92-106.22-14.79-59.34-15.55-117-41.34-170.56-66.89C394.84,282,227.27,216.2,63.32,243.23c-2.4.39-5.07.81-8,1.26-15,2.33-35.73,5.56-55.36,11.63v-1c19.62-6,40.26-9.25,55.21-11.58l7.95-1.26c74.23-12.24,154.12-6.48,244.21,17.61,68.14,18.22,139.13,45.74,230.2,89.22,106.52,50.88,230.28,102.64,351,72.67,46.54-11.55,90.17-34.14,132.37-56,20.19-10.45,41.07-21.26,61.92-30.66q9.72-4.38,19.66-8.93c50-22.78,101.6-46.33,155-57.77,61-13.09,113-7.21,158.76,18A214.51,214.51,0,0,1,1440,301.59Z"/><path class="cls-34" d="M1440,287.82v1.24a215.07,215.07,0,0,0-24.26-15.59c-102.21-56.2-214.1-5.17-312.81,39.84q-9.95,4.53-19.67,8.94c-20.82,9.39-41.69,20.19-61.87,30.64C979.14,374.75,935.45,397.36,888.8,409a309.41,309.41,0,0,1-74.89,8.95c-33.36,0-68.56-4.92-106.22-14.79-59.34-15.55-117-41.34-170.56-66.9C394.84,268.26,227.27,202.43,63.32,229.46c-2.4.4-5.07.81-8,1.26-15,2.34-35.72,5.56-55.36,11.64v-1.05c19.61-6,40.26-9.25,55.2-11.58,2.89-.45,5.56-.86,8-1.26,74.23-12.24,154.12-6.47,244.21,17.61,68.14,18.22,139.13,45.74,230.2,89.23,106.52,50.87,230.28,102.63,351,72.66,46.54-11.55,90.17-34.13,132.37-56,20.19-10.45,41.07-21.26,61.92-30.67q9.72-4.38,19.66-8.93c50-22.78,101.6-46.33,155-57.77,61-13.09,113-7.21,158.76,18A214.4,214.4,0,0,1,1440,287.82Z"/><path class="cls-35" d="M1440,274.05v1.24a215,215,0,0,0-24.26-15.58c-102.21-56.2-214.1-5.18-312.81,39.84q-9.95,4.53-19.67,8.93c-20.82,9.39-41.69,20.19-61.87,30.64C979.14,361,935.45,383.6,888.8,395.18a309.41,309.41,0,0,1-74.89,8.95c-33.36,0-68.56-4.92-106.22-14.79-59.34-15.55-117-41.34-170.56-66.9C394.84,254.49,227.27,188.67,63.32,215.69c-2.4.4-5.07.82-8,1.27-15,2.33-35.73,5.56-55.36,11.63v-1c19.62-6,40.26-9.25,55.21-11.58l7.95-1.26c74.23-12.24,154.12-6.48,244.21,17.61,68.14,18.22,139.13,45.73,230.2,89.22,106.52,50.87,230.27,102.64,351,72.67,46.54-11.55,90.17-34.14,132.37-56,20.19-10.45,41.07-21.26,61.92-30.66q9.72-4.38,19.66-8.93c50-22.78,101.6-46.34,155-57.78,61-13.08,113-7.21,158.76,18A214.4,214.4,0,0,1,1440,274.05Z"/><path class="cls-36" d="M1440,260.29v1.23a215,215,0,0,0-24.26-15.58c-102.21-56.2-214.1-5.18-312.81,39.84q-9.95,4.53-19.67,8.93c-20.82,9.4-41.69,20.2-61.87,30.64-42.25,21.87-85.94,44.48-132.59,56.06a308.92,308.92,0,0,1-74.89,9c-33.36,0-68.56-4.93-106.22-14.79-59.34-15.56-117-41.35-170.56-66.9-142.29-68-309.86-133.78-473.81-106.75-2.4.39-5.07.81-8,1.26-15,2.33-35.73,5.56-55.36,11.63v-1c19.62-6,40.26-9.25,55.21-11.58,2.89-.45,5.55-.86,7.95-1.26,74.23-12.24,154.12-6.48,244.21,17.61,68.14,18.22,139.13,45.74,230.2,89.23,106.52,50.87,230.27,102.63,351,72.66,46.54-11.55,90.17-34.13,132.37-56,20.19-10.46,41.07-21.26,61.92-30.67q9.72-4.38,19.66-8.93c50-22.78,101.6-46.33,155-57.77,61-13.09,113-7.21,158.76,18A214.51,214.51,0,0,1,1440,260.29Z"/><path class="cls-37" d="M1440,246.52v1.24a215.07,215.07,0,0,0-24.26-15.59C1313.53,176,1201.64,227,1102.92,272q-9.93,4.53-19.66,8.93c-20.82,9.39-41.69,20.19-61.87,30.64-42.25,21.86-85.94,44.48-132.59,56.06a309.41,309.41,0,0,1-74.89,9c-33.36,0-68.56-4.92-106.22-14.79-59.34-15.55-117-41.34-170.56-66.9C394.84,227,227.27,161.13,63.32,188.16c-2.4.4-5.07.81-8,1.26C40.37,191.76,19.64,195,0,201.06v-1c19.62-6,40.26-9.25,55.21-11.58l7.95-1.26c74.23-12.24,154.11-6.48,244.21,17.61C375.51,223,446.5,250.52,537.57,294c106.52,50.87,230.27,102.63,351,72.67,46.54-11.56,90.17-34.14,132.37-56,20.19-10.45,41.07-21.26,61.92-30.66q9.72-4.38,19.66-8.93c50-22.78,101.6-46.34,155-57.78,61-13.08,113-7.21,158.76,18A214.4,214.4,0,0,1,1440,246.52Z"/><path class="cls-38" d="M1440,232.75V234a215,215,0,0,0-24.26-15.58c-102.21-56.2-214.1-5.18-312.81,39.84q-9.95,4.53-19.67,8.93c-20.82,9.4-41.69,20.2-61.87,30.64-42.25,21.87-85.94,44.48-132.59,56.06a308.91,308.91,0,0,1-74.89,8.95c-33.36,0-68.56-4.92-106.22-14.79-59.34-15.55-117-41.34-170.56-66.89-142.29-68-309.86-133.78-473.81-106.75-2.4.39-5.07.81-8,1.26C40.37,178,19.63,181.22,0,187.29v-1c19.62-6,40.26-9.25,55.21-11.58,2.89-.45,5.55-.86,7.95-1.26,74.23-12.24,154.12-6.48,244.21,17.61,68.14,18.22,139.13,45.74,230.2,89.22,106.52,50.87,230.27,102.64,351,72.67,46.54-11.55,90.17-34.14,132.37-56,20.19-10.45,41.07-21.26,61.92-30.66q9.72-4.38,19.66-8.93c50-22.78,101.6-46.33,155-57.77,61-13.09,113-7.21,158.76,18A214.4,214.4,0,0,1,1440,232.75Z"/><path class="cls-39" d="M1440,219v1.23a215,215,0,0,0-24.26-15.58c-102.21-56.2-214.1-5.17-312.81,39.84-6.63,3-13.19,6-19.67,8.94-20.82,9.39-41.69,20.19-61.87,30.64-42.25,21.86-85.94,44.47-132.59,56.06a309.41,309.41,0,0,1-74.89,8.95c-33.36,0-68.56-4.92-106.22-14.79-59.34-15.55-117-41.34-170.56-66.9C394.84,199.43,227.27,133.6,63.32,160.63c-2.4.4-5.07.81-8,1.26-15,2.34-35.72,5.56-55.36,11.64v-1.05c19.61-6,40.26-9.25,55.2-11.58,2.89-.45,5.56-.86,8-1.26,74.23-12.23,154.12-6.47,244.21,17.61,68.14,18.22,139.13,45.74,230.2,89.23,106.52,50.87,230.27,102.63,351,72.67,46.54-11.56,90.17-34.14,132.37-56,20.19-10.45,41.07-21.26,61.92-30.66q9.72-4.39,19.66-8.94c50-22.78,101.6-46.33,155-57.77,61-13.09,113-7.21,158.76,18A214.4,214.4,0,0,1,1440,219Z"/><path class="cls-40" d="M1440,205.23v1.23a215,215,0,0,0-24.26-15.58c-102.21-56.2-214.1-5.18-312.81,39.84q-9.95,4.53-19.67,8.93c-20.82,9.39-41.69,20.19-61.87,30.64-42.25,21.87-85.94,44.48-132.59,56.06a309.41,309.41,0,0,1-74.89,8.95c-33.36,0-68.56-4.92-106.22-14.79-59.34-15.55-117-41.34-170.56-66.89-142.29-68-309.86-133.78-473.81-106.75-2.4.39-5.07.81-8,1.26-15,2.33-35.73,5.56-55.36,11.63v-1c19.62-6,40.26-9.25,55.21-11.58l7.95-1.26c74.23-12.24,154.12-6.48,244.21,17.61,68.14,18.22,139.13,45.73,230.2,89.22,106.52,50.87,230.27,102.64,351,72.67,46.54-11.55,90.17-34.14,132.37-56,20.19-10.45,41.07-21.26,61.92-30.66q9.72-4.38,19.66-8.93c50-22.78,101.6-46.34,155-57.77,61-13.09,113-7.21,158.76,18A214.51,214.51,0,0,1,1440,205.23Z"/><path class="cls-41" d="M1440,191.46v1.24a215.07,215.07,0,0,0-24.26-15.59c-102.21-56.2-214.1-5.18-312.81,39.84q-9.95,4.53-19.67,8.93c-20.82,9.4-41.69,20.2-61.87,30.64C979.14,278.39,935.45,301,888.8,312.58a308.92,308.92,0,0,1-74.89,9c-33.36,0-68.56-4.93-106.22-14.79-59.34-15.55-117-41.35-170.56-66.9-142.29-68-309.86-133.78-473.81-106.75-2.4.39-5.07.81-8,1.26C40.37,136.69,19.63,139.92,0,146V145c19.62-6,40.26-9.25,55.21-11.58,2.89-.45,5.55-.86,7.95-1.26,74.23-12.24,154.12-6.48,244.21,17.61,68.14,18.22,139.13,45.74,230.2,89.23,106.52,50.87,230.27,102.63,351,72.66,46.54-11.55,90.17-34.13,132.37-56,20.19-10.46,41.07-21.26,61.92-30.67q9.72-4.38,19.66-8.93c50-22.78,101.6-46.33,155-57.77,61-13.09,113-7.21,158.76,18A213.06,213.06,0,0,1,1440,191.46Z"/><path class="cls-42" d="M1440,177.69v1.24a215,215,0,0,0-24.26-15.58c-102.21-56.2-214.1-5.18-312.82,39.84q-9.93,4.53-19.66,8.93c-20.82,9.39-41.69,20.19-61.87,30.64-42.25,21.86-85.94,44.48-132.59,56.06a309.41,309.41,0,0,1-74.89,8.95c-33.36,0-68.56-4.92-106.22-14.79-59.34-15.55-117-41.34-170.56-66.9C394.84,158.13,227.27,92.3,63.32,119.33c-2.4.4-5.07.81-8,1.26-15,2.34-35.72,5.56-55.36,11.64v-1c19.62-6,40.26-9.25,55.21-11.58l7.95-1.26c74.23-12.24,154.11-6.48,244.21,17.61,68.14,18.22,139.13,45.73,230.2,89.22,106.52,50.87,230.27,102.64,351,72.67,46.54-11.56,90.17-34.14,132.37-56,20.19-10.45,41.07-21.26,61.92-30.66q9.72-4.38,19.66-8.93c50-22.78,101.6-46.34,155-57.78,61-13.08,113-7.21,158.76,18A214.4,214.4,0,0,1,1440,177.69Z"/><path class="cls-43" d="M1440,163.93v1.23a215,215,0,0,0-24.26-15.58c-102.21-56.2-214.1-5.18-312.81,39.84q-9.95,4.53-19.67,8.93c-20.82,9.4-41.69,20.2-61.87,30.64-42.25,21.87-85.94,44.48-132.59,56.06a309.41,309.41,0,0,1-74.89,9c-33.36,0-68.56-4.93-106.22-14.8-59.34-15.55-117-41.34-170.56-66.89-142.29-68-309.86-133.78-473.81-106.75-2.4.39-5.07.81-8,1.26-15,2.33-35.73,5.56-55.36,11.63v-1c19.62-6,40.26-9.25,55.21-11.58,2.89-.45,5.55-.86,7.95-1.26,74.23-12.24,154.12-6.48,244.21,17.61,68.14,18.22,139.13,45.74,230.2,89.23,106.52,50.87,230.27,102.63,351,72.66,46.54-11.55,90.17-34.14,132.37-56,20.19-10.45,41.07-21.25,61.92-30.66q9.72-4.38,19.66-8.93c50-22.78,101.6-46.33,155-57.77,61-13.09,113-7.21,158.76,18A214.51,214.51,0,0,1,1440,163.93Z"/><path class="cls-44" d="M1440,150.16v1.24a215.07,215.07,0,0,0-24.26-15.59c-102.21-56.2-214.1-5.17-312.81,39.84q-9.95,4.54-19.67,8.94c-20.82,9.39-41.69,20.19-61.87,30.64-42.25,21.86-85.94,44.47-132.59,56.06a309.41,309.41,0,0,1-74.89,8.95c-33.36,0-68.56-4.92-106.22-14.79-59.34-15.55-117-41.34-170.56-66.9C394.84,130.6,227.27,64.77,63.32,91.8c-2.4.4-5.07.81-8,1.26C40.37,95.4,19.64,98.62,0,104.7v-1c19.62-6,40.26-9.25,55.21-11.58,2.88-.45,5.55-.86,7.95-1.26,74.23-12.23,154.12-6.47,244.21,17.62,68.14,18.21,139.13,45.73,230.2,89.22,106.52,50.87,230.27,102.63,351,72.67,46.54-11.56,90.17-34.14,132.37-56,20.19-10.45,41.07-21.26,61.92-30.66q9.72-4.4,19.66-8.94c50-22.78,101.6-46.33,155-57.77,61-13.09,113-7.21,158.76,18A214.4,214.4,0,0,1,1440,150.16Z"/><path class="cls-45" d="M1440,136.39v1.24a215,215,0,0,0-24.26-15.58c-102.21-56.2-214.1-5.18-312.81,39.84q-9.95,4.53-19.67,8.93c-20.82,9.39-41.69,20.2-61.87,30.64-42.25,21.87-85.94,44.48-132.59,56.06a308.91,308.91,0,0,1-74.89,9c-33.36,0-68.56-4.92-106.22-14.79-59.34-15.55-117-41.34-170.56-66.89C394.84,116.83,227.27,51,63.32,78c-2.4.39-5.07.81-8,1.26C40.37,81.63,19.63,84.86,0,90.93v-1c19.62-6,40.26-9.25,55.21-11.58l7.95-1.26c74.23-12.24,154.12-6.48,244.21,17.61,68.14,18.22,139.13,45.74,230.2,89.22,106.52,50.87,230.27,102.64,351,72.67,46.54-11.55,90.17-34.14,132.37-56,20.19-10.45,41.07-21.26,61.92-30.66q9.72-4.38,19.66-8.93c50-22.78,101.6-46.34,155-57.77,61-13.09,113-7.21,158.76,18A214.4,214.4,0,0,1,1440,136.39Z"/><path class="cls-46" d="M1440,122.63v1.23a215,215,0,0,0-24.26-15.58c-102.21-56.2-214.1-5.18-312.81,39.84q-9.95,4.53-19.67,8.94c-20.82,9.39-41.69,20.19-61.87,30.63-42.25,21.87-85.94,44.48-132.59,56.06a308.92,308.92,0,0,1-74.89,9c-33.36,0-68.56-4.93-106.22-14.79-59.34-15.55-117-41.35-170.56-66.9C394.84,103.06,227.27,37.24,63.32,64.27c-2.4.4-5.07.81-8,1.26C40.37,67.86,19.63,71.09,0,77.17v-1c19.62-6,40.26-9.25,55.21-11.58,2.89-.45,5.55-.86,7.95-1.26C137.39,51,217.28,56.81,307.37,80.89c68.14,18.22,139.13,45.74,230.2,89.23,106.52,50.87,230.27,102.63,351,72.66,46.54-11.55,90.17-34.13,132.37-56,20.19-10.46,41.07-21.26,61.92-30.67q9.72-4.38,19.66-8.93c50-22.78,101.6-46.33,155-57.77,61-13.09,113-7.21,158.76,18A214.4,214.4,0,0,1,1440,122.63Z"/><path class="cls-47" d="M1440,108.86v1.24a215,215,0,0,0-24.26-15.58c-102.21-56.2-214.1-5.18-312.82,39.84q-9.93,4.53-19.66,8.93c-20.82,9.39-41.69,20.19-61.87,30.64C979.14,195.8,935.45,218.41,888.8,230a309.41,309.41,0,0,1-74.89,8.95c-33.36,0-68.56-4.92-106.22-14.79-59.34-15.55-117-41.34-170.56-66.9C394.84,89.3,227.27,23.47,63.32,50.5c-2.4.4-5.07.81-8,1.26C40.37,54.1,19.64,57.32,0,63.4v-1c19.62-6,40.26-9.25,55.21-11.58l7.95-1.26C137.39,37.28,217.27,43,307.37,67.13c68.14,18.22,139.13,45.73,230.2,89.22C644.09,207.22,767.84,259,888.56,229c46.54-11.56,90.17-34.14,132.37-56,20.19-10.45,41.07-21.26,61.92-30.66q9.72-4.38,19.66-8.93c50-22.78,101.6-46.34,155-57.78,61-13.08,113-7.21,158.76,18A214.4,214.4,0,0,1,1440,108.86Z"/><path class="cls-48" d="M1440,95.1v1.23a215,215,0,0,0-24.26-15.58c-102.21-56.2-214.1-5.18-312.81,39.84q-9.95,4.53-19.67,8.93c-20.82,9.4-41.69,20.2-61.87,30.64C979.14,182,935.45,204.64,888.8,216.22a309.41,309.41,0,0,1-74.89,9c-33.36,0-68.56-4.93-106.22-14.8-59.34-15.55-117-41.34-170.56-66.89C394.84,75.53,227.27,9.71,63.32,36.74c-2.4.39-5.07.81-8,1.26C40.37,40.33,19.63,43.56,0,49.64v-1c19.62-6,40.26-9.25,55.21-11.58,2.89-.45,5.55-.86,7.95-1.26,74.23-12.24,154.12-6.48,244.21,17.61,68.14,18.22,139.13,45.74,230.2,89.23,106.52,50.87,230.27,102.63,351,72.66,46.54-11.55,90.17-34.14,132.37-56,20.19-10.45,41.07-21.25,61.92-30.66q9.72-4.38,19.66-8.93c50-22.78,101.6-46.33,155-57.77,61-13.09,113-7.21,158.76,18A213.06,213.06,0,0,1,1440,95.1Z"/><path class="cls-49" d="M1440,81.33v1.23A215,215,0,0,0,1415.74,67c-102.21-56.19-214.1-5.17-312.81,39.84q-9.95,4.55-19.67,8.94c-20.82,9.39-41.69,20.19-61.87,30.64-42.25,21.86-85.94,44.48-132.59,56.06a309.41,309.41,0,0,1-74.89,8.95c-33.36,0-68.56-4.92-106.22-14.79-59.34-15.55-117-41.34-170.56-66.9C394.84,61.77,227.27-4.06,63.32,23c-2.4.4-5.07.81-8,1.26C40.37,26.57,19.64,29.79,0,35.87v-1c19.62-6,40.26-9.25,55.21-11.58,2.88-.45,5.55-.86,7.95-1.25C137.39,9.75,217.28,15.51,307.37,39.6c68.14,18.21,139.13,45.73,230.2,89.22,106.52,50.87,230.27,102.63,351,72.67,46.54-11.56,90.17-34.14,132.37-56,20.19-10.45,41.07-21.26,61.92-30.66q9.72-4.39,19.66-8.94c50-22.78,101.6-46.33,155-57.77,61-13.09,113-7.21,158.76,18A214.4,214.4,0,0,1,1440,81.33Z"/><path class="cls-50" d="M1440,67.57V68.8a215,215,0,0,0-24.26-15.58C1313.53-3,1201.64,48,1102.93,93.06q-9.95,4.53-19.67,8.93c-20.82,9.39-41.69,20.2-61.87,30.64-42.25,21.87-85.94,44.48-132.59,56.06a308.91,308.91,0,0,1-74.89,8.95c-33.36,0-68.56-4.92-106.22-14.79-59.34-15.55-117-41.34-170.56-66.89C394.84,48,227.27-17.82,63.32,9.21c-2.4.39-5.07.81-8,1.26C40.37,12.8,19.63,16,0,22.1v-1c19.62-6,40.26-9.25,55.21-11.58l7.95-1.26C137.39-4,217.28,1.74,307.37,25.83c68.14,18.22,139.13,45.74,230.2,89.22,106.52,50.87,230.27,102.64,351,72.67,46.54-11.55,90.17-34.14,132.37-56,20.19-10.45,41.07-21.26,61.92-30.66q9.72-4.38,19.66-8.93c50-22.78,101.6-46.34,155-57.77,61-13.09,113-7.21,158.76,18A214.51,214.51,0,0,1,1440,67.57Z"/><path class="cls-51" d="M29.89,0h5.45A304.73,304.73,0,0,0,0,8.34v-1A288.91,288.91,0,0,1,29.89,0Z"/><path class="cls-52" d="M1440,53.8V55a215.07,215.07,0,0,0-24.26-15.59c-102.21-56.2-214.1-5.18-312.81,39.84q-9.95,4.53-19.67,8.94c-20.82,9.39-41.69,20.19-61.87,30.63-42.25,21.87-85.94,44.48-132.59,56.06a308.92,308.92,0,0,1-74.89,9c-33.36,0-68.56-4.93-106.22-14.79-59.34-15.55-117-41.35-170.56-66.9C449.11,60.16,351.42,18.94,250.9,0h4.57q25.39,5,51.9,12.06c68.14,18.22,139.13,45.74,230.2,89.23,106.52,50.87,230.27,102.63,351,72.66,46.54-11.55,90.17-34.13,132.37-56,20.19-10.46,41.07-21.26,61.92-30.67q9.72-4.38,19.66-8.93c50-22.78,101.6-46.33,155-57.77,61-13.09,113-7.21,158.76,18A214.4,214.4,0,0,1,1440,53.8Z"/><path class="cls-53" d="M1440,40v1.24a215,215,0,0,0-24.26-15.58c-102.21-56.2-214.1-5.18-312.82,39.84q-9.93,4.53-19.66,8.93c-20.82,9.39-41.69,20.19-61.87,30.64C979.14,127,935.45,149.58,888.8,161.16a309.41,309.41,0,0,1-74.89,9c-33.36,0-68.56-4.92-106.22-14.79-59.34-15.55-117-41.34-170.56-66.9C466.61,54.74,389.87,21.59,310.44,0h3.18c66.24,18.21,135.66,45.36,224,87.52,106.52,50.87,230.27,102.63,351,72.67,46.54-11.56,90.17-34.14,132.37-56C1041.12,93.76,1062,83,1082.85,73.55q9.72-4.38,19.66-8.93c50-22.78,101.6-46.34,155-57.78,61-13.08,113-7.21,158.76,18A214.4,214.4,0,0,1,1440,40Z"/><path class="cls-54" d="M1230.09,0h3.39c-44.72,12.62-88.81,32.73-130.55,51.76q-9.95,4.53-19.67,8.93c-20.82,9.4-41.69,20.2-61.87,30.64-42.25,21.87-85.94,44.48-132.59,56.06a308.92,308.92,0,0,1-74.89,9c-33.36,0-68.56-4.93-106.22-14.8-59.34-15.55-117-41.34-170.56-66.89C480.26,47.5,419.36,20.68,356.26,0h2.9c53,17.47,110.06,41.12,178.41,73.76,106.52,50.87,230.27,102.63,351,72.66,46.54-11.55,90.17-34.13,132.37-56C1041.12,80,1062,69.19,1082.85,59.78q9.72-4.38,19.66-8.93C1143.87,32,1186.4,12.6,1230.09,0Z"/><path class="cls-55" d="M1440,26.27V27.5a215,215,0,0,0-24.26-15.58A199.13,199.13,0,0,0,1389.89,0h2.74a200.18,200.18,0,0,1,23.59,11A214.51,214.51,0,0,1,1440,26.27Z"/><path class="cls-56" d="M1189,0h2.82c-30.37,11.31-60.17,24.9-88.87,38q-9.95,4.55-19.67,8.94c-20.82,9.39-41.69,20.19-61.87,30.64-42.25,21.86-85.94,44.48-132.59,56.06a309.41,309.41,0,0,1-74.89,9c-33.36,0-68.56-4.92-106.22-14.79-59.34-15.55-117-41.34-170.56-66.9C492.19,39.44,444.74,18.19,395.67,0h2.65c42,15.63,87.38,35.22,139.25,60,106.52,50.87,230.27,102.63,351,72.67,46.54-11.56,90.17-34.14,132.37-56C1041.12,66.23,1062,55.42,1082.85,46q9.72-4.38,19.66-8.94C1130.79,24.19,1159.61,11.05,1189,0Z"/><path class="cls-57" d="M1440,12.5v1.24A215.37,215.37,0,0,0,1419,0h2A216,216,0,0,1,1440,12.5Z"/><path class="cls-58" d="M1157.39,0c-18.49,7.83-36.69,16.13-54.46,24.23q-9.95,4.53-19.67,8.93c-20.82,9.39-41.69,20.2-61.87,30.64-42.25,21.87-85.94,44.48-132.59,56.06a308.91,308.91,0,0,1-74.89,9c-33.36,0-68.56-4.92-106.22-14.79-59.34-15.55-117-41.34-170.56-66.89-34-16.25-69.48-32.37-106-47.13h2.53c32,13,66.24,28.24,103.9,46.22,106.52,50.87,230.27,102.64,351,72.67,46.54-11.55,90.17-34.14,132.37-56,20.19-10.45,41.07-21.26,61.92-30.66q9.72-4.38,19.66-8.93c17.23-7.86,34.66-15.81,52.3-23.32Z"/><path class="cls-59" d="M1126,0q-11.64,5.24-23,10.46Q1093,15,1083.26,19.4c-20.82,9.39-41.69,20.19-61.87,30.64C979.14,71.9,935.45,94.51,888.8,106.1a309.41,309.41,0,0,1-74.89,9c-33.36,0-68.56-4.92-106.22-14.79-59.35-15.55-117-41.34-170.56-66.9C513.43,22,489,10.78,464.06,0h2.42c22.41,9.7,46,20.47,71.09,32.46,106.52,50.87,230.28,102.63,351,72.66,46.54-11.55,90.17-34.13,132.37-56,20.19-10.45,41.07-21.26,61.92-30.67q9.72-4.38,19.66-8.93,10.46-4.77,21-9.55Z"/><path class="cls-60" d="M1095.68,0q-6.26,2.85-12.42,5.63c-20.82,9.39-41.69,20.19-61.87,30.64C979.14,58.14,935.45,80.75,888.8,92.33a309.41,309.41,0,0,1-74.89,9c-33.36,0-68.56-4.92-106.22-14.79-59.34-15.55-117-41.34-170.56-66.9Q516.48,9.72,495.13,0h2.37q19.41,8.82,40.07,18.69c106.52,50.87,230.27,102.63,351,72.67,46.54-11.55,90.17-34.14,132.37-56,20.19-10.45,41.07-21.26,61.92-30.66Q1088,2.4,1093.26,0Z"/><path class="cls-61" d="M1065.88,0c-15,7.24-29.93,15-44.49,22.5C979.14,44.37,935.45,67,888.8,78.56a308.92,308.92,0,0,1-74.89,9c-33.36,0-68.56-4.93-106.22-14.79-59.34-15.56-117-41.35-170.56-66.9Q531,2.91,524.84,0h2.35q5.14,2.43,10.38,4.93c106.52,50.87,230.27,102.63,351,72.66,46.54-11.55,90.17-34.13,132.37-56C1034.9,14.38,1049.2,7,1063.58,0Z"/><path class="cls-62" d="M1038.32,0c-5.69,2.92-11.33,5.85-16.93,8.74C979.14,30.6,935.45,53.22,888.8,64.8a309.41,309.41,0,0,1-74.89,9c-33.36,0-68.56-4.92-106.22-14.79C654.49,45,602.62,22.85,553.89,0h2.38C658.43,47.76,774.84,92.05,888.56,63.83c46.54-11.56,90.17-34.14,132.37-56,5-2.6,10.1-5.23,15.2-7.85Z"/><path class="cls-63" d="M1011.65,0C972.43,20.24,931.88,40.34,888.8,51A308.91,308.91,0,0,1,813.91,60c-33.36,0-68.56-4.92-106.22-14.79C665.3,34.08,623.74,17.74,584,0h2.51C681,41.92,785.9,75.55,888.56,50.06,930.9,39.55,970.83,19.91,1009.47,0Z"/><path class="cls-64" d="M984.49,0C953.73,15.18,922,29,888.8,37.27a309.41,309.41,0,0,1-74.89,8.95c-33.36,0-68.56-4.92-106.22-14.79C676.55,23.27,645.87,12.29,616,0h2.75c85.86,35,178.7,58.91,269.81,36.29C921,28.23,952.08,14.8,982.22,0Z"/><path class="cls-65" d="M955.22,0c-21.55,9.55-43.64,17.84-66.42,23.5a309.41,309.41,0,0,1-74.89,9c-33.36,0-68.56-4.92-106.22-14.79C688.77,12.7,670,6.7,651.52,0h3.19C730.22,26.93,810,42,888.56,22.53c22-5.45,43.35-13.39,64.2-22.53Z"/><path class="cls-66" d="M920.89,0c-10.55,3.74-21.24,7-32.09,9.73a308.92,308.92,0,0,1-74.89,9c-33.36,0-68.56-4.93-106.22-14.79Q700.63,2,693.59,0h4.07c62.49,17.61,127.12,24.6,190.9,8.76,9.9-2.46,19.67-5.42,29.32-8.76Z"/><path class="cls-67" d="M869.93,0a313.82,313.82,0,0,1-56,4.92A379.09,379.09,0,0,1,754.21,0h7.64c33.83,4.8,68,5.41,102,0Z"/></g></svg>