<svg id="Layer_1" data-name="Layer 1" xmlns="http://www.w3.org/2000/svg" xmlns:xlink="http://www.w3.org/1999/xlink" viewBox="0 0 1534.04 1000.68"><defs><style>.cls-1,.cls-10,.cls-11,.cls-12,.cls-13,.cls-14,.cls-15,.cls-16,.cls-17,.cls-18,.cls-19,.cls-20,.cls-21,.cls-22,.cls-23,.cls-24,.cls-25,.cls-26,.cls-27,.cls-28,.cls-29,.cls-30,.cls-31,.cls-32,.cls-33,.cls-34,.cls-35,.cls-36,.cls-37,.cls-38,.cls-39,.cls-40,.cls-41,.cls-42,.cls-43,.cls-44,.cls-45,.cls-46,.cls-47,.cls-48,.cls-49,.cls-50,.cls-51,.cls-52,.cls-53,.cls-54,.cls-55,.cls-56,.cls-57,.cls-58,.cls-59,.cls-60,.cls-61,.cls-62,.cls-63,.cls-64,.cls-65,.cls-66,.cls-8,.cls-9{fill:none;}.cls-2{fill:#0e0033;}.cls-3{fill:url(#linear-gradient);}.cls-4{fill:url(#linear-gradient-2);}.cls-5{fill:#005db7;}.cls-6{clip-path:url(#clip-path);}.cls-7{opacity:0.3;}.cls-10,.cls-11,.cls-12,.cls-13,.cls-14,.cls-15,.cls-16,.cls-17,.cls-18,.cls-19,.cls-20,.cls-21,.cls-22,.cls-23,.cls-24,.cls-25,.cls-26,.cls-27,.cls-28,.cls-29,.cls-30,.cls-31,.cls-32,.cls-33,.cls-34,.cls-35,.cls-36,.cls-37,.cls-38,.cls-39,.cls-40,.cls-41,.cls-42,.cls-43,.cls-44,.cls-45,.cls-46,.cls-47,.cls-48,.cls-49,.cls-50,.cls-51,.cls-52,.cls-53,.cls-54,.cls-55,.cls-56,.cls-57,.cls-58,.cls-59,.cls-60,.cls-61,.cls-62,.cls-63,.cls-64,.cls-65,.cls-66,.cls-8,.cls-9{stroke-miterlimit:10;}.cls-8{stroke:url(#linear-gradient-3);}.cls-9{stroke:url(#linear-gradient-4);}.cls-10{stroke:url(#linear-gradient-5);}.cls-11{stroke:url(#linear-gradient-6);}.cls-12{stroke:url(#linear-gradient-7);}.cls-13{stroke:url(#linear-gradient-8);}.cls-14{stroke:url(#linear-gradient-9);}.cls-15{stroke:url(#linear-gradient-10);}.cls-16{stroke:url(#linear-gradient-11);}.cls-17{stroke:url(#linear-gradient-12);}.cls-18{stroke:url(#linear-gradient-13);}.cls-19{stroke:url(#linear-gradient-14);}.cls-20{stroke:url(#linear-gradient-15);}.cls-21{stroke:url(#linear-gradient-16);}.cls-22{stroke:url(#linear-gradient-17);}.cls-23{stroke:url(#linear-gradient-18);}.cls-24{stroke:url(#linear-gradient-19);}.cls-25{stroke:url(#linear-gradient-20);}.cls-26{stroke:url(#linear-gradient-21);}.cls-27{stroke:url(#linear-gradient-22);}.cls-28{stroke:url(#linear-gradient-23);}.cls-29{stroke:url(#linear-gradient-24);}.cls-30{stroke:url(#linear-gradient-25);}.cls-31{stroke:url(#linear-gradient-26);}.cls-32{stroke:url(#linear-gradient-27);}.cls-33{stroke:url(#linear-gradient-28);}.cls-34{stroke:url(#linear-gradient-29);}.cls-35{stroke:url(#linear-gradient-30);}.cls-36{stroke:url(#linear-gradient-31);}.cls-37{stroke:url(#linear-gradient-32);}.cls-38{stroke:url(#linear-gradient-33);}.cls-39{stroke:url(#linear-gradient-34);}.cls-40{stroke:url(#linear-gradient-35);}.cls-41{stroke:url(#linear-gradient-36);}.cls-42{stroke:url(#linear-gradient-37);}.cls-43{stroke:url(#linear-gradient-38);}.cls-44{stroke:url(#linear-gradient-39);}.cls-45{stroke:url(#linear-gradient-40);}.cls-46{stroke:url(#linear-gradient-41);}.cls-47{stroke:url(#linear-gradient-42);}.cls-48{stroke:url(#linear-gradient-43);}.cls-49{stroke:url(#linear-gradient-44);}.cls-50{stroke:url(#linear-gradient-45);}.cls-51{stroke:url(#linear-gradient-46);}.cls-52{stroke:url(#linear-gradient-47);}.cls-53{stroke:url(#linear-gradient-48);}.cls-54{stroke:url(#linear-gradient-49);}.cls-55{stroke:url(#linear-gradient-50);}.cls-56{stroke:url(#linear-gradient-51);}.cls-57{stroke:url(#linear-gradient-52);}.cls-58{stroke:url(#linear-gradient-53);}.cls-59{stroke:url(#linear-gradient-54);}.cls-60{stroke:url(#linear-gradient-55);}.cls-61{stroke:url(#linear-gradient-56);}.cls-62{stroke:url(#linear-gradient-57);}.cls-63{stroke:url(#linear-gradient-58);}.cls-64{stroke:url(#linear-gradient-59);}.cls-65{stroke:url(#linear-gradient-60);}.cls-66{stroke:url(#linear-gradient-61);}</style><linearGradient id="linear-gradient" x1="15.32" y1="518.69" x2="763.76" y2="1109.99" gradientUnits="userSpaceOnUse"><stop offset="0" stop-color="#005db7"/><stop offset="1" stop-color="#0acbff"/></linearGradient><linearGradient id="linear-gradient-2" x1="1397.63" y1="659.89" x2="895.43" y2="964.45" xlink:href="#linear-gradient"/><clipPath id="clip-path" transform="translate(41.07 190.68)"><rect class="cls-1" width="1440" height="810"/></clipPath><linearGradient id="linear-gradient-3" x1="-41.07" y1="705.54" x2="1492.97" y2="705.54" gradientUnits="userSpaceOnUse"><stop offset="0" stop-color="#6300e6" stop-opacity="0.4"/><stop offset="1" stop-color="#f1f2f2"/></linearGradient><linearGradient id="linear-gradient-4" x1="-41.07" y1="691.77" x2="1492.97" y2="691.77" xlink:href="#linear-gradient-3"/><linearGradient id="linear-gradient-5" x1="-41.07" y1="678" x2="1492.97" y2="678" xlink:href="#linear-gradient-3"/><linearGradient id="linear-gradient-6" x1="-41.07" y1="664.24" x2="1492.97" y2="664.24" xlink:href="#linear-gradient-3"/><linearGradient id="linear-gradient-7" x1="-41.07" y1="650.47" x2="1492.97" y2="650.47" xlink:href="#linear-gradient-3"/><linearGradient id="linear-gradient-8" x1="-41.07" y1="636.71" x2="1492.97" y2="636.71" xlink:href="#linear-gradient-3"/><linearGradient id="linear-gradient-9" x1="-41.07" y1="622.94" x2="1492.97" y2="622.94" xlink:href="#linear-gradient-3"/><linearGradient id="linear-gradient-10" x1="-41.07" y1="609.17" x2="1492.97" y2="609.17" xlink:href="#linear-gradient-3"/><linearGradient id="linear-gradient-11" x1="-41.07" y1="595.41" x2="1492.97" y2="595.41" xlink:href="#linear-gradient-3"/><linearGradient id="linear-gradient-12" x1="-41.07" y1="581.64" x2="1492.97" y2="581.64" xlink:href="#linear-gradient-3"/><linearGradient id="linear-gradient-13" x1="-41.07" y1="567.88" x2="1492.97" y2="567.88" xlink:href="#linear-gradient-3"/><linearGradient id="linear-gradient-14" x1="-41.07" y1="554.11" x2="1492.97" y2="554.11" xlink:href="#linear-gradient-3"/><linearGradient id="linear-gradient-15" x1="-41.07" y1="540.35" x2="1492.97" y2="540.35" xlink:href="#linear-gradient-3"/><linearGradient id="linear-gradient-16" x1="-41.07" y1="526.58" x2="1492.97" y2="526.58" xlink:href="#linear-gradient-3"/><linearGradient id="linear-gradient-17" x1="-41.07" y1="512.81" x2="1492.97" y2="512.81" xlink:href="#linear-gradient-3"/><linearGradient id="linear-gradient-18" x1="-41.07" y1="499.05" x2="1492.97" y2="499.05" xlink:href="#linear-gradient-3"/><linearGradient id="linear-gradient-19" x1="-41.07" y1="485.28" x2="1492.97" y2="485.28" xlink:href="#linear-gradient-3"/><linearGradient id="linear-gradient-20" x1="-41.07" y1="471.52" x2="1492.97" y2="471.52" xlink:href="#linear-gradient-3"/><linearGradient id="linear-gradient-21" x1="-41.07" y1="457.75" x2="1492.97" y2="457.75" xlink:href="#linear-gradient-3"/><linearGradient id="linear-gradient-22" x1="-41.07" y1="443.98" x2="1492.97" y2="443.98" xlink:href="#linear-gradient-3"/><linearGradient id="linear-gradient-23" x1="-41.07" y1="430.22" x2="1492.97" y2="430.22" xlink:href="#linear-gradient-3"/><linearGradient id="linear-gradient-24" x1="-41.07" y1="416.45" x2="1492.97" y2="416.45" xlink:href="#linear-gradient-3"/><linearGradient id="linear-gradient-25" x1="-41.07" y1="402.69" x2="1492.97" y2="402.69" xlink:href="#linear-gradient-3"/><linearGradient id="linear-gradient-26" x1="-41.07" y1="388.92" x2="1492.97" y2="388.92" xlink:href="#linear-gradient-3"/><linearGradient id="linear-gradient-27" x1="-41.07" y1="375.15" x2="1492.97" y2="375.15" xlink:href="#linear-gradient-3"/><linearGradient id="linear-gradient-28" x1="-41.07" y1="361.39" x2="1492.97" y2="361.39" xlink:href="#linear-gradient-3"/><linearGradient id="linear-gradient-29" x1="-41.07" y1="347.62" x2="1492.97" y2="347.62" xlink:href="#linear-gradient-3"/><linearGradient id="linear-gradient-30" x1="-41.07" y1="333.86" x2="1492.97" y2="333.86" xlink:href="#linear-gradient-3"/><linearGradient id="linear-gradient-31" x1="-41.07" y1="320.09" x2="1492.97" y2="320.09" xlink:href="#linear-gradient-3"/><linearGradient id="linear-gradient-32" x1="-41.07" y1="306.32" x2="1492.97" y2="306.32" xlink:href="#linear-gradient-3"/><linearGradient id="linear-gradient-33" x1="-41.07" y1="292.56" x2="1492.97" y2="292.56" xlink:href="#linear-gradient-3"/><linearGradient id="linear-gradient-34" x1="-41.07" y1="278.79" x2="1492.97" y2="278.79" xlink:href="#linear-gradient-3"/><linearGradient id="linear-gradient-35" x1="-41.07" y1="265.03" x2="1492.97" y2="265.03" xlink:href="#linear-gradient-3"/><linearGradient id="linear-gradient-36" x1="-41.07" y1="251.26" x2="1492.97" y2="251.26" xlink:href="#linear-gradient-3"/><linearGradient id="linear-gradient-37" x1="-41.07" y1="237.49" x2="1492.97" y2="237.49" xlink:href="#linear-gradient-3"/><linearGradient id="linear-gradient-38" x1="-41.07" y1="223.73" x2="1492.97" y2="223.73" xlink:href="#linear-gradient-3"/><linearGradient id="linear-gradient-39" x1="-41.07" y1="209.96" x2="1492.97" y2="209.96" xlink:href="#linear-gradient-3"/><linearGradient id="linear-gradient-40" x1="-41.07" y1="196.2" x2="1492.97" y2="196.2" xlink:href="#linear-gradient-3"/><linearGradient id="linear-gradient-41" x1="-41.07" y1="182.43" x2="1492.97" y2="182.43" xlink:href="#linear-gradient-3"/><linearGradient id="linear-gradient-42" x1="-41.07" y1="168.67" x2="1492.97" y2="168.67" xlink:href="#linear-gradient-3"/><linearGradient id="linear-gradient-43" x1="-41.07" y1="154.9" x2="1492.97" y2="154.9" xlink:href="#linear-gradient-3"/><linearGradient id="linear-gradient-44" x1="-41.07" y1="141.13" x2="1492.97" y2="141.13" xlink:href="#linear-gradient-3"/><linearGradient id="linear-gradient-45" x1="-41.07" y1="127.37" x2="1492.97" y2="127.37" xlink:href="#linear-gradient-3"/><linearGradient id="linear-gradient-46" x1="-41.07" y1="113.6" x2="1492.97" y2="113.6" xlink:href="#linear-gradient-3"/><linearGradient id="linear-gradient-47" x1="-41.07" y1="99.84" x2="1492.97" y2="99.84" xlink:href="#linear-gradient-3"/><linearGradient id="linear-gradient-48" x1="-41.07" y1="86.07" x2="1492.97" y2="86.07" xlink:href="#linear-gradient-3"/><linearGradient id="linear-gradient-49" x1="-41.07" y1="72.3" x2="1492.97" y2="72.3" xlink:href="#linear-gradient-3"/><linearGradient id="linear-gradient-50" x1="-41.07" y1="58.54" x2="1492.97" y2="58.54" xlink:href="#linear-gradient-3"/><linearGradient id="linear-gradient-51" x1="-41.07" y1="44.77" x2="1492.97" y2="44.77" xlink:href="#linear-gradient-3"/><linearGradient id="linear-gradient-52" x1="-41.07" y1="31.01" x2="1492.97" y2="31.01" xlink:href="#linear-gradient-3"/><linearGradient id="linear-gradient-53" x1="-41.07" y1="17.24" x2="1492.97" y2="17.24" xlink:href="#linear-gradient-3"/><linearGradient id="linear-gradient-54" x1="-41.07" y1="3.47" x2="1492.97" y2="3.47" xlink:href="#linear-gradient-3"/><linearGradient id="linear-gradient-55" x1="-41.07" y1="-10.29" x2="1492.97" y2="-10.29" xlink:href="#linear-gradient-3"/><linearGradient id="linear-gradient-56" x1="-41.07" y1="-24.06" x2="1492.97" y2="-24.06" xlink:href="#linear-gradient-3"/><linearGradient id="linear-gradient-57" x1="-41.07" y1="-37.82" x2="1492.97" y2="-37.82" xlink:href="#linear-gradient-3"/><linearGradient id="linear-gradient-58" x1="-41.07" y1="-51.59" x2="1492.97" y2="-51.59" xlink:href="#linear-gradient-3"/><linearGradient id="linear-gradient-59" x1="-41.07" y1="-65.36" x2="1492.97" y2="-65.36" xlink:href="#linear-gradient-3"/><linearGradient id="linear-gradient-60" x1="-41.07" y1="-79.12" x2="1492.97" y2="-79.12" xlink:href="#linear-gradient-3"/><linearGradient id="linear-gradient-61" x1="-41.07" y1="-92.89" x2="1492.97" y2="-92.89" xlink:href="#linear-gradient-3"/></defs><title>section 1 (1440x810 Px)</title><rect class="cls-2" x="41.07" y="190.68" width="1440" height="810"/><path class="cls-3" d="M545.26,733.47c69.32,33.09,145.17,66.32,222.83,76.53H0V648c24.94-11,64.49-15.9,82.2-18.81C240.77,603,404.78,666.38,545.26,733.47Z" transform="translate(41.07 190.68)"/><path class="cls-4" d="M1440,697.65V810H860.21q14.09-2,28.19-5.51c67.33-16.74,127.08-56.36,189.85-84.66,99.57-44.91,218.34-106.37,325.16-47.62A222.37,222.37,0,0,1,1440,697.65Z" transform="translate(41.07 190.68)"/><path class="cls-5" d="M480.86,810H0V681.25c93.27-2.6,187,13.57,275.83,41.22A1059,1059,0,0,1,437.2,787.8C451.56,795,466.29,802.32,480.86,810Z" transform="translate(41.07 190.68)"/><path class="cls-5" d="M1392.25,724.82A268.35,268.35,0,0,1,1440,748v62H965.44c15.52-4.09,30.95-8.61,46.26-13.42,25.64-8.06,51.08-16.89,76.06-26.85,25.93-10.35,53.76-18.93,78.72-31.4C1240.75,708.71,1315.18,696.83,1392.25,724.82Z" transform="translate(41.07 190.68)"/><g class="cls-6"><g class="cls-7"><path class="cls-8" d="M-40.65,647.89a4.48,4.48,0,0,1,.7-1c27.5-22.49,79.1-28.51,103.19-32.48,162.36-26.76,330.28,38.11,474.11,106.8,107.37,51.27,230.1,102.79,351.33,72.7,69-17.12,130.11-57.69,194.38-86.67,102-46,223.54-108.9,332.92-48.76,30,16.51,54.44,39.75,76.61,65.59" transform="translate(41.07 190.68)"/><path class="cls-9" d="M-40.65,634.13a4.06,4.06,0,0,1,.7-1c27.5-22.49,79.1-28.51,103.19-32.48,162.36-26.77,330.28,38.1,474.11,106.79,107.37,51.27,230.1,102.8,351.33,72.7,69-17.12,130.11-57.68,194.38-86.67,102-46,223.54-108.9,332.92-48.76,30,16.52,54.44,39.75,76.61,65.6" transform="translate(41.07 190.68)"/><path class="cls-10" d="M-40.65,620.36a4.26,4.26,0,0,1,.7-1c27.5-22.49,79.1-28.51,103.19-32.48C225.6,560.11,393.52,625,537.35,693.67c107.37,51.28,230.1,102.8,351.33,72.7,69-17.11,130.11-57.68,194.38-86.67,102-46,223.54-108.89,332.92-48.75,30,16.51,54.44,39.75,76.61,65.59" transform="translate(41.07 190.68)"/><path class="cls-11" d="M-40.65,606.59a4.2,4.2,0,0,1,.7-1c27.5-22.49,79.1-28.51,103.19-32.48,162.36-26.77,330.28,38.1,474.11,106.79,107.37,51.27,230.1,102.79,351.33,72.7,69-17.12,130.11-57.68,194.38-86.67C1185,620,1306.6,557,1416,617.18c30,16.52,54.44,39.75,76.61,65.6" transform="translate(41.07 190.68)"/><path class="cls-12" d="M-40.65,592.83a4.06,4.06,0,0,1,.7-1c27.5-22.49,79.1-28.51,103.19-32.48,162.36-26.77,330.28,38.1,474.11,106.79,107.37,51.28,230.1,102.8,351.33,72.7,69-17.11,130.11-57.68,194.38-86.67,102-46,223.54-108.9,332.92-48.75,30,16.51,54.44,39.75,76.61,65.59" transform="translate(41.07 190.68)"/><path class="cls-13" d="M-40.65,579.06a4.2,4.2,0,0,1,.7-1c27.5-22.49,79.1-28.51,103.19-32.49,162.36-26.76,330.28,38.11,474.11,106.8,107.37,51.27,230.1,102.79,351.33,72.7,69-17.12,130.11-57.68,194.38-86.67,102-46,223.54-108.9,332.92-48.76,30,16.52,54.44,39.75,76.61,65.59" transform="translate(41.07 190.68)"/><path class="cls-14" d="M-40.65,565.3a4.06,4.06,0,0,1,.7-1c27.5-22.49,79.1-28.51,103.19-32.48,162.36-26.77,330.28,38.1,474.11,106.79,107.37,51.27,230.1,102.8,351.33,72.7,69-17.12,130.11-57.68,194.38-86.67,102-46,223.54-108.9,332.92-48.76,30,16.52,54.44,39.75,76.61,65.6" transform="translate(41.07 190.68)"/><path class="cls-15" d="M-40.65,551.53a4.48,4.48,0,0,1,.7-1C-12.45,528,39.15,522,63.24,518.05c162.36-26.77,330.28,38.11,474.11,106.79,107.37,51.28,230.1,102.8,351.33,72.7,69-17.11,130.11-57.68,194.38-86.67,102-46,223.54-108.89,332.92-48.75,30,16.51,54.44,39.75,76.61,65.59" transform="translate(41.07 190.68)"/><path class="cls-16" d="M-40.65,537.76a4.2,4.2,0,0,1,.7-1c27.5-22.49,79.1-28.51,103.19-32.48,162.36-26.77,330.28,38.1,474.11,106.79,107.37,51.27,230.1,102.79,351.33,72.7,69-17.12,130.11-57.68,194.38-86.67,102-46,223.54-108.9,332.92-48.76,30,16.52,54.44,39.75,76.61,65.6" transform="translate(41.07 190.68)"/><path class="cls-17" d="M-40.65,524a4.06,4.06,0,0,1,.7-1c27.5-22.49,79.1-28.51,103.19-32.48,162.36-26.77,330.28,38.1,474.11,106.79,107.37,51.28,230.1,102.8,351.33,72.7,69-17.11,130.11-57.68,194.38-86.67,102-46,223.54-108.89,332.92-48.75,30,16.51,54.44,39.75,76.61,65.59" transform="translate(41.07 190.68)"/><path class="cls-18" d="M-40.65,510.23a4.2,4.2,0,0,1,.7-1c27.5-22.49,79.1-28.51,103.19-32.49C225.6,450,393.52,514.86,537.35,583.55c107.37,51.27,230.1,102.79,351.33,72.7,69-17.12,130.11-57.68,194.38-86.67,102-46,223.54-108.9,332.92-48.76,30,16.52,54.44,39.75,76.61,65.59" transform="translate(41.07 190.68)"/><path class="cls-19" d="M-40.65,496.47a4.06,4.06,0,0,1,.7-1C-12.45,473,39.15,467,63.24,463c162.36-26.77,330.28,38.1,474.11,106.79,107.37,51.27,230.1,102.8,351.33,72.7,69-17.12,130.11-57.68,194.38-86.67,102-46,223.54-108.9,332.92-48.76,30,16.52,54.44,39.75,76.61,65.6" transform="translate(41.07 190.68)"/><path class="cls-20" d="M-40.65,482.7a4.48,4.48,0,0,1,.7-1c27.5-22.49,79.1-28.51,103.19-32.48C225.6,422.46,393.52,487.33,537.35,556c107.37,51.28,230.1,102.8,351.33,72.7,69-17.11,130.11-57.68,194.38-86.66,102-46,223.54-108.9,332.92-48.76,30,16.51,54.44,39.75,76.61,65.59" transform="translate(41.07 190.68)"/><path class="cls-21" d="M-40.65,468.93a4.2,4.2,0,0,1,.7-1c27.5-22.49,79.1-28.51,103.19-32.48,162.36-26.77,330.28,38.1,474.11,106.79C644.72,593.52,767.45,645,888.68,615c69-17.12,130.11-57.68,194.38-86.67,102-46,223.54-108.9,332.92-48.76,30,16.52,54.44,39.75,76.61,65.6" transform="translate(41.07 190.68)"/><path class="cls-22" d="M-40.65,455.17a4.06,4.06,0,0,1,.7-1c27.5-22.49,79.1-28.51,103.19-32.48,162.36-26.77,330.28,38.1,474.11,106.79,107.37,51.28,230.1,102.8,351.33,72.7,69-17.11,130.11-57.68,194.38-86.67,102-46,223.54-108.89,332.92-48.75,30,16.51,54.44,39.75,76.61,65.59" transform="translate(41.07 190.68)"/><path class="cls-23" d="M-40.65,441.4a4.2,4.2,0,0,1,.7-1c27.5-22.49,79.1-28.51,103.19-32.49C225.6,381.16,393.52,446,537.35,514.72c107.37,51.27,230.1,102.79,351.33,72.7,69-17.12,130.11-57.68,194.38-86.67,102-46,223.54-108.9,332.92-48.76,30,16.52,54.44,39.75,76.61,65.59" transform="translate(41.07 190.68)"/><path class="cls-24" d="M-40.65,427.64a4.06,4.06,0,0,1,.7-1c27.5-22.49,79.1-28.51,103.19-32.48C225.6,367.39,393.52,432.26,537.35,501c107.37,51.28,230.1,102.8,351.33,72.7,69-17.12,130.11-57.68,194.38-86.67,102-46,223.54-108.9,332.92-48.75,30,16.51,54.44,39.74,76.61,65.59" transform="translate(41.07 190.68)"/><path class="cls-25" d="M-40.65,413.87a4.48,4.48,0,0,1,.7-1c27.5-22.49,79.1-28.51,103.19-32.48C225.6,353.63,393.52,418.5,537.35,487.18c107.37,51.28,230.1,102.8,351.33,72.71,69-17.12,130.11-57.69,194.38-86.67,102-46,223.54-108.9,332.92-48.76,30,16.51,54.44,39.75,76.61,65.59" transform="translate(41.07 190.68)"/><path class="cls-26" d="M-40.65,400.1a4.2,4.2,0,0,1,.7-1c27.5-22.49,79.1-28.51,103.19-32.48,162.36-26.77,330.28,38.1,474.11,106.79,107.37,51.27,230.1,102.8,351.33,72.7,69-17.12,130.11-57.68,194.38-86.67,102-46,223.54-108.9,332.92-48.76,30,16.52,54.44,39.75,76.61,65.6" transform="translate(41.07 190.68)"/><path class="cls-27" d="M-40.65,386.34a4.06,4.06,0,0,1,.7-1c27.5-22.49,79.1-28.51,103.19-32.48C225.6,326.09,393.52,391,537.35,459.65c107.37,51.28,230.1,102.8,351.33,72.7,69-17.11,130.11-57.68,194.38-86.67,102-46,223.54-108.89,332.92-48.75,30,16.51,54.44,39.75,76.61,65.59" transform="translate(41.07 190.68)"/><path class="cls-28" d="M-40.65,372.57a4.2,4.2,0,0,1,.7-1c27.5-22.49,79.1-28.51,103.19-32.49,162.36-26.76,330.28,38.11,474.11,106.8,107.37,51.27,230.1,102.79,351.33,72.7,69-17.12,130.11-57.68,194.38-86.67,102-46,223.54-108.9,332.92-48.76,30,16.52,54.44,39.75,76.61,65.59" transform="translate(41.07 190.68)"/><path class="cls-29" d="M-40.65,358.81a4.06,4.06,0,0,1,.7-1c27.5-22.49,79.1-28.51,103.19-32.48,162.36-26.77,330.28,38.1,474.11,106.79,107.37,51.28,230.1,102.8,351.33,72.7,69-17.12,130.11-57.68,194.38-86.67,102-46,223.54-108.9,332.92-48.75,30,16.51,54.44,39.74,76.61,65.59" transform="translate(41.07 190.68)"/><path class="cls-30" d="M-40.65,345a4.48,4.48,0,0,1,.7-1c27.5-22.49,79.1-28.51,103.19-32.48,162.36-26.76,330.28,38.11,474.11,106.8,107.37,51.27,230.1,102.79,351.33,72.7,69-17.12,130.11-57.69,194.38-86.67,102-46,223.54-108.9,332.92-48.76,30,16.51,54.44,39.75,76.61,65.59" transform="translate(41.07 190.68)"/><path class="cls-31" d="M-40.65,331.28a4.06,4.06,0,0,1,.7-1c27.5-22.49,79.1-28.51,103.19-32.48C225.6,271,393.52,335.9,537.35,404.59c107.37,51.27,230.1,102.8,351.33,72.7,69-17.12,130.11-57.68,194.38-86.67,102-46,223.54-108.9,332.92-48.76,30,16.52,54.44,39.75,76.61,65.6" transform="translate(41.07 190.68)"/><path class="cls-32" d="M-40.65,317.51a4.06,4.06,0,0,1,.7-1C-12.45,294,39.15,288,63.24,284c162.36-26.77,330.28,38.11,474.11,106.79,107.37,51.28,230.1,102.8,351.33,72.7,69-17.11,130.11-57.68,194.38-86.67C1185,330.87,1306.6,268,1416,328.1c30,16.51,54.44,39.75,76.61,65.59" transform="translate(41.07 190.68)"/><path class="cls-33" d="M-40.65,303.74a4.2,4.2,0,0,1,.7-1c27.5-22.49,79.1-28.51,103.19-32.48,162.36-26.77,330.28,38.1,474.11,106.79,107.37,51.27,230.1,102.79,351.33,72.7,69-17.12,130.11-57.68,194.38-86.67,102-46,223.54-108.9,332.92-48.76,30,16.52,54.44,39.75,76.61,65.6" transform="translate(41.07 190.68)"/><path class="cls-34" d="M-40.65,290a4.06,4.06,0,0,1,.7-1c27.5-22.49,79.1-28.51,103.19-32.48,162.36-26.77,330.28,38.1,474.11,106.79,107.37,51.28,230.1,102.8,351.33,72.7,69-17.11,130.11-57.68,194.38-86.67,102-46,223.54-108.9,332.92-48.75,30,16.51,54.44,39.75,76.61,65.59" transform="translate(41.07 190.68)"/><path class="cls-35" d="M-40.65,276.21a4.2,4.2,0,0,1,.7-1c27.5-22.49,79.1-28.51,103.19-32.49C225.6,216,393.52,280.84,537.35,349.53c107.37,51.27,230.1,102.79,351.33,72.7,69-17.12,130.11-57.69,194.38-86.67,102-46,223.54-108.9,332.92-48.76,30,16.51,54.44,39.75,76.61,65.59" transform="translate(41.07 190.68)"/><path class="cls-36" d="M-40.65,262.45a4.06,4.06,0,0,1,.7-1C-12.45,239,39.15,232.94,63.24,229c162.36-26.77,330.28,38.1,474.11,106.79,107.37,51.27,230.1,102.8,351.33,72.7,69-17.12,130.11-57.68,194.38-86.67,102-46,223.54-108.9,332.92-48.76,30,16.52,54.44,39.75,76.61,65.6" transform="translate(41.07 190.68)"/><path class="cls-37" d="M-40.65,248.68a4.48,4.48,0,0,1,.7-1c27.5-22.49,79.1-28.51,103.19-32.48C225.6,188.43,393.52,253.31,537.35,322c107.37,51.28,230.1,102.8,351.33,72.7,69-17.11,130.11-57.68,194.38-86.67,102-46,223.54-108.89,332.92-48.75,30,16.51,54.44,39.75,76.61,65.59" transform="translate(41.07 190.68)"/><path class="cls-38" d="M-40.65,234.91a4.2,4.2,0,0,1,.7-1c27.5-22.49,79.1-28.51,103.19-32.48,162.36-26.77,330.28,38.1,474.11,106.79C644.72,359.5,767.45,411,888.68,380.93c69-17.12,130.11-57.68,194.38-86.67,102-46,223.54-108.9,332.92-48.76,30,16.52,54.44,39.75,76.61,65.6" transform="translate(41.07 190.68)"/><path class="cls-39" d="M-40.65,221.15a4.06,4.06,0,0,1,.7-1c27.5-22.49,79.1-28.51,103.19-32.48,162.36-26.77,330.28,38.1,474.11,106.79,107.37,51.28,230.1,102.8,351.33,72.7,69-17.11,130.11-57.68,194.38-86.67,102-46,223.54-108.9,332.92-48.75,30,16.51,54.44,39.75,76.61,65.59" transform="translate(41.07 190.68)"/><path class="cls-40" d="M-40.65,207.38a4.2,4.2,0,0,1,.7-1c27.5-22.49,79.1-28.51,103.19-32.49C225.6,147.14,393.52,212,537.35,280.7,644.72,332,767.45,383.49,888.68,353.4c69-17.12,130.11-57.68,194.38-86.67,102-46,223.54-108.9,332.92-48.76,30,16.52,54.44,39.75,76.61,65.59" transform="translate(41.07 190.68)"/><path class="cls-41" d="M-40.65,193.62a4.06,4.06,0,0,1,.7-1c27.5-22.49,79.1-28.51,103.19-32.48,162.36-26.77,330.28,38.1,474.11,106.79,107.37,51.27,230.1,102.8,351.33,72.7,69-17.12,130.11-57.68,194.38-86.67,102-46,223.54-108.9,332.92-48.76,30,16.52,54.44,39.75,76.61,65.6" transform="translate(41.07 190.68)"/><path class="cls-42" d="M-40.65,179.85a4.48,4.48,0,0,1,.7-1c27.5-22.49,79.1-28.51,103.19-32.48C225.6,119.6,393.52,184.48,537.35,253.16c107.37,51.28,230.1,102.8,351.33,72.7,69-17.11,130.11-57.68,194.38-86.66,102-46,223.54-108.9,332.92-48.76,30,16.51,54.44,39.75,76.61,65.59" transform="translate(41.07 190.68)"/><path class="cls-43" d="M-40.65,166.08a4.2,4.2,0,0,1,.7-1c27.5-22.49,79.1-28.51,103.19-32.48,162.36-26.77,330.28,38.1,474.11,106.79,107.37,51.27,230.1,102.79,351.33,72.7,69-17.12,130.11-57.68,194.38-86.67,102-46,223.54-108.9,332.92-48.76,30,16.52,54.44,39.75,76.61,65.6" transform="translate(41.07 190.68)"/><path class="cls-44" d="M-40.65,152.32a4.06,4.06,0,0,1,.7-1c27.5-22.49,79.1-28.51,103.19-32.48,162.36-26.77,330.28,38.1,474.11,106.79,107.37,51.28,230.1,102.8,351.33,72.7,69-17.11,130.11-57.68,194.38-86.67,102-46,223.54-108.89,332.92-48.75,30,16.51,54.44,39.75,76.61,65.59" transform="translate(41.07 190.68)"/><path class="cls-45" d="M-40.65,138.55a4.2,4.2,0,0,1,.7-1c27.5-22.49,79.1-28.51,103.19-32.49,162.36-26.76,330.28,38.11,474.11,106.8,107.37,51.27,230.1,102.79,351.33,72.7,69-17.12,130.11-57.68,194.38-86.67,102-46,223.54-108.9,332.92-48.76,30,16.52,54.44,39.75,76.61,65.59" transform="translate(41.07 190.68)"/><path class="cls-46" d="M-40.65,124.79a4.06,4.06,0,0,1,.7-1c27.5-22.49,79.1-28.51,103.19-32.48C225.6,64.54,393.52,129.41,537.35,198.1c107.37,51.27,230.1,102.8,351.33,72.7,69-17.12,130.11-57.68,194.38-86.67,102-46,223.54-108.9,332.92-48.75,30,16.51,54.44,39.74,76.61,65.59" transform="translate(41.07 190.68)"/><path class="cls-47" d="M-40.65,111a4.48,4.48,0,0,1,.7-1c27.5-22.49,79.1-28.51,103.19-32.48C225.6,50.78,393.52,115.65,537.35,184.33c107.37,51.28,230.1,102.8,351.33,72.7,69-17.11,130.11-57.68,194.38-86.66,102-46,223.54-108.9,332.92-48.76,30,16.51,54.44,39.75,76.61,65.59" transform="translate(41.07 190.68)"/><path class="cls-48" d="M-40.65,97.25a4.2,4.2,0,0,1,.7-1c27.5-22.49,79.1-28.51,103.19-32.48C225.6,37,393.52,101.88,537.35,170.57c107.37,51.27,230.1,102.79,351.33,72.7,69-17.12,130.11-57.68,194.38-86.67,102-46,223.54-108.9,332.92-48.76,30,16.52,54.44,39.75,76.61,65.6" transform="translate(41.07 190.68)"/><path class="cls-49" d="M-40.65,83.49a4.06,4.06,0,0,1,.7-1C-12.45,60,39.15,54,63.24,50,225.6,23.24,393.52,88.11,537.35,156.8c107.37,51.28,230.1,102.8,351.33,72.7,69-17.11,130.11-57.68,194.38-86.67,102-46,223.54-108.89,332.92-48.75,30,16.51,54.44,39.75,76.61,65.59" transform="translate(41.07 190.68)"/><path class="cls-50" d="M-40.65,69.72a4.2,4.2,0,0,1,.7-1c27.5-22.49,79.1-28.51,103.19-32.49C225.6,9.48,393.52,74.35,537.35,143c107.37,51.27,230.1,102.79,351.33,72.7,69-17.12,130.11-57.68,194.38-86.67,102-46,223.54-108.9,332.92-48.76,30,16.52,54.44,39.75,76.61,65.59" transform="translate(41.07 190.68)"/><path class="cls-51" d="M-40.65,56a4.06,4.06,0,0,1,.7-1c27.5-22.49,79.1-28.51,103.19-32.48C225.6-4.29,393.52,60.58,537.35,129.27c107.37,51.28,230.1,102.8,351.33,72.7,69-17.12,130.11-57.68,194.38-86.67C1185,69.32,1306.6,6.4,1416,66.55c30,16.51,54.44,39.74,76.61,65.59" transform="translate(41.07 190.68)"/><path class="cls-52" d="M-40.65,42.19a4.48,4.48,0,0,1,.7-1C-12.45,18.7,39.15,12.68,63.24,8.71,225.6-18,393.52,46.82,537.35,115.5c107.37,51.28,230.1,102.8,351.33,72.71,69-17.12,130.11-57.69,194.38-86.67,102-46,223.54-108.9,332.92-48.76,30,16.51,54.44,39.75,76.61,65.59" transform="translate(41.07 190.68)"/><path class="cls-53" d="M-40.65,28.42a4.2,4.2,0,0,1,.7-1C-12.45,4.94,39.15-1.08,63.24-5,225.6-31.82,393.52,33.05,537.35,101.74c107.37,51.27,230.1,102.8,351.33,72.7,69-17.12,130.11-57.68,194.38-86.67C1185,41.78,1306.6-21.13,1416,39c30,16.52,54.44,39.75,76.61,65.6" transform="translate(41.07 190.68)"/><path class="cls-54" d="M-40.65,14.66a4.06,4.06,0,0,1,.7-1c27.5-22.49,79.1-28.51,103.19-32.48C225.6-45.59,393.52,19.28,537.35,88c107.37,51.28,230.1,102.8,351.33,72.7,69-17.11,130.11-57.68,194.38-86.67C1185,28,1306.6-34.89,1416,25.25c30,16.51,54.44,39.75,76.61,65.59" transform="translate(41.07 190.68)"/><path class="cls-55" d="M-40.65.89a4.2,4.2,0,0,1,.7-1c27.5-22.49,79.1-28.51,103.19-32.49C225.6-59.35,393.52,5.52,537.35,74.21c107.37,51.27,230.1,102.79,351.33,72.7,69-17.12,130.11-57.68,194.38-86.67,102-46,223.54-108.9,332.92-48.76,30,16.52,54.44,39.75,76.61,65.59" transform="translate(41.07 190.68)"/><path class="cls-56" d="M-40.65-12.87a4.06,4.06,0,0,1,.7-1c27.5-22.49,79.1-28.51,103.19-32.48C225.6-73.12,393.52-8.25,537.35,60.44c107.37,51.28,230.1,102.8,351.33,72.7,69-17.12,130.11-57.68,194.38-86.67C1185,.49,1306.6-62.43,1416-2.28c30,16.51,54.44,39.74,76.61,65.59" transform="translate(41.07 190.68)"/><path class="cls-57" d="M-40.65-26.64a4.48,4.48,0,0,1,.7-1c27.5-22.49,79.1-28.51,103.19-32.48C225.6-86.88,393.52-22,537.35,46.68,644.72,98,767.45,149.47,888.68,119.38c69-17.12,130.11-57.69,194.38-86.67C1185-13.28,1306.6-76.19,1416-16c30,16.51,54.44,39.75,76.61,65.59" transform="translate(41.07 190.68)"/><path class="cls-58" d="M-40.65-40.4a4.06,4.06,0,0,1,.7-1c27.5-22.49,79.1-28.51,103.19-32.48C225.6-100.65,393.52-35.78,537.35,32.91c107.37,51.27,230.1,102.8,351.33,72.7,69-17.12,130.11-57.68,194.38-86.67C1185-27,1306.6-90,1416-29.82c30,16.52,54.44,39.75,76.61,65.6" transform="translate(41.07 190.68)"/><path class="cls-59" d="M-40.65-54.17a4.48,4.48,0,0,1,.7-1c27.5-22.49,79.1-28.51,103.19-32.48C225.6-114.42,393.52-49.54,537.35,19.14c107.37,51.28,230.1,102.8,351.33,72.7,69-17.11,130.11-57.68,194.38-86.67,102-46,223.54-108.89,332.92-48.75,30,16.51,54.44,39.75,76.61,65.59" transform="translate(41.07 190.68)"/><path class="cls-60" d="M-40.65-67.94a4.2,4.2,0,0,1,.7-1c27.5-22.49,79.1-28.51,103.19-32.48C225.6-128.18,393.52-63.31,537.35,5.38c107.37,51.27,230.1,102.79,351.33,72.7,69-17.12,130.11-57.68,194.38-86.67,102-46,223.54-108.9,332.92-48.76,30,16.52,54.44,39.75,76.61,65.6" transform="translate(41.07 190.68)"/><path class="cls-61" d="M-40.65-81.7a4.06,4.06,0,0,1,.7-1c27.5-22.49,79.1-28.51,103.19-32.48C225.6-141.95,393.52-77.08,537.35-8.39c107.37,51.28,230.1,102.8,351.33,72.7,69-17.11,130.11-57.68,194.38-86.67,102-46,223.54-108.9,332.92-48.75,30,16.51,54.44,39.75,76.61,65.59" transform="translate(41.07 190.68)"/><path class="cls-62" d="M-40.65-95.47a4.2,4.2,0,0,1,.7-1c27.5-22.49,79.1-28.51,103.19-32.49C225.6-155.71,393.52-90.84,537.35-22.15c107.37,51.27,230.1,102.79,351.33,72.7,69-17.12,130.11-57.68,194.38-86.67C1185-82.11,1306.6-145,1416-84.88c30,16.52,54.44,39.75,76.61,65.59" transform="translate(41.07 190.68)"/><path class="cls-63" d="M-40.65-109.23a4.06,4.06,0,0,1,.7-1c27.5-22.49,79.1-28.51,103.19-32.48,162.36-26.77,330.28,38.1,474.11,106.79,107.37,51.27,230.1,102.8,351.33,72.7,69-17.12,130.11-57.68,194.38-86.67,102-46,223.54-108.9,332.92-48.76,30,16.52,54.44,39.75,76.61,65.6" transform="translate(41.07 190.68)"/><path class="cls-64" d="M-40.65-123a4.48,4.48,0,0,1,.7-1c27.5-22.49,79.1-28.51,103.19-32.48C225.6-183.25,393.52-118.37,537.35-49.69,644.72,1.59,767.45,53.11,888.68,23c69-17.11,130.11-57.68,194.38-86.66,102-46,223.54-108.9,332.92-48.76,30,16.51,54.44,39.75,76.61,65.59" transform="translate(41.07 190.68)"/><path class="cls-65" d="M-40.65-136.77a4.2,4.2,0,0,1,.7-1c27.5-22.49,79.1-28.51,103.19-32.48C225.6-197,393.52-132.14,537.35-63.45,644.72-12.18,767.45,39.34,888.68,9.25c69-17.12,130.11-57.68,194.38-86.67,102-46,223.54-108.9,332.92-48.76,30,16.52,54.44,39.75,76.61,65.6" transform="translate(41.07 190.68)"/><path class="cls-66" d="M-40.65-150.53a4.06,4.06,0,0,1,.7-1C-12.45-174,39.15-180,63.24-184c162.36-26.77,330.28,38.1,474.11,106.79,107.37,51.28,230.1,102.8,351.33,72.7,69-17.11,130.11-57.68,194.38-86.67,102-46,223.54-108.89,332.92-48.75,30,16.51,54.44,39.75,76.61,65.59" transform="translate(41.07 190.68)"/></g></g></svg>