<svg id="Layer_1" data-name="Layer 1" xmlns="http://www.w3.org/2000/svg" viewBox="0 0 125 178"><defs><style>.cls-1{fill:#9bd4e4;}</style></defs><title>line 3 (125x178 px)</title><rect class="cls-1" width="5.99" height="2.99"/><path class="cls-1" d="M125,159.79h-3v-12.2h3Zm0-24.4h-3v-12.2h3ZM125,111h-3V98.78h3Zm0-24.4h-3V74.38h3Zm0-24.4h-3V50h3Zm0-24.41h-3V25.57h3ZM120.94,14A17.06,17.06,0,0,0,114.5,5l1.66-2.49A20,20,0,0,1,123.78,13ZM103.6,3H91.4V0h12.2ZM79.2,3H67V0H79.2ZM54.79,3H42.59V0h12.2ZM30.39,3H18.19V0h12.2Z"/><rect class="cls-1" x="122.01" y="172.01" width="2.99" height="5.99"/></svg>